<?xml version="1.0" encoding="UTF-8" standalone="no"?><svg xmlns="http://www.w3.org/2000/svg" xmlns:xlink="http://www.w3.org/1999/xlink" contentScriptType="application/ecmascript" contentStyleType="text/css" height="323px" preserveAspectRatio="none" style="width:691px;height:323px;" version="1.1" viewBox="0 0 691 323" width="691px" zoomAndPan="magnify"><defs><filter height="300%" id="f1x02eyckl0kdf" width="300%" x="-1" y="-1"><feGaussianBlur result="blurOut" stdDeviation="2.0"/><feColorMatrix in="blurOut" result="blurOut2" type="matrix" values="0 0 0 0 0 0 0 0 0 0 0 0 0 0 0 0 0 0 .4 0"/><feOffset dx="4.0" dy="4.0" in="blurOut2" result="blurOut3"/><feBlend in="SourceGraphic" in2="blurOut3" mode="normal"/></filter></defs><g><polygon fill="#DDDDDD" points="4,4,4,4.2102,14.0789,3.5857,24.1579,4.1933,34.2368,4.3997,44.3158,3.2866,54.3947,3.9223,64.4737,3.5735,74.5526,3.6165,84.6316,3.9318,94.7105,3.3086,104.7895,4.5536,114.8684,3.3697,124.9474,3.8022,135.0263,4.4319,145.1053,3.9142,155.1842,4.0682,165.2632,3.9681,175.3421,4.1785,185.4211,4.2391,195.5,4.5857,205.5789,4.6711,215.6579,4.6793,225.7368,4.2546,235.8158,4.4636,245.8947,4.7022,255.9737,3.2788,266.0526,4.6785,276.1316,3.7035,286.2105,4.5338,296.2895,3.505,306.3684,3.9315,316.4474,4.7416,326.5263,3.9513,336.6053,4.1053,346.6842,4.3386,356.7632,4.4162,366.8421,3.9961,376.9211,4.2872,387,4,386.4276,4,387.2844,14.0508,387.5482,24.1016,387.4445,34.1523,387.613,44.2031,386.5169,54.2539,386.3478,64.3047,386.3786,74.3555,386.9411,84.4063,386.8035,94.457,387.6814,104.5078,386.8253,114.5586,386.6569,124.6094,387.2283,134.6602,386.3332,144.7109,386.4809,154.7617,387.649,164.8125,387.4357,174.8633,387.7345,184.9141,386.6782,194.9648,387.3192,205.0156,387.5904,215.0664,386.5276,225.1172,386.9041,235.168,387.126,245.2188,387.6518,255.2695,386.9958,265.3203,387.4626,275.3711,386.4462,285.4219,386.3227,295.4727,387,305.5234,387,306.0271,376.9211,304.8065,366.8421,306.0324,356.7632,305.7301,346.6842,305.2555,336.6053,305.1697,326.5263,305.9822,316.4474,305.2241,306.3684,306.1153,296.2895,304.9707,286.2105,306.1409,276.1316,306.0077,266.0526,305.7684,255.9737,305.5707,245.8947,306.25,235.8158,306.137,225.7368,305.6927,215.6579,305.7916,205.5789,305.3932,195.5,306.2399,185.4211,305.6783,175.3421,305.696,165.2632,304.9151,155.1842,305.1182,145.1053,306.0542,135.0263,305.9532,124.9474,305.4805,114.8684,305.2013,104.7895,305.3045,94.7105,304.8373,84.6316,305.9382,74.5526,306.263,64.4737,306.0498,54.3947,306.2184,44.3158,305.3867,34.2368,305.6107,24.1579,305.1358,14.0789,305.8075,4,305.5234,4.2468,305.5234,4.5524,295.4727,3.7703,285.4219,3.8656,275.3711,4.4435,265.3203,4.5673,255.2695,3.4875,245.2188,3.8061,235.168,4.1493,225.1172,3.3892,215.0664,4.3534,205.0156,4.258,194.9648,3.8992,184.9141,4.1422,174.8633,4.7287,164.8125,3.6871,154.7617,4.315,144.7109,4.2856,134.6602,4.1158,124.6094,4.1409,114.5586,4.1135,104.5078,3.3758,94.457,3.5992,84.4063,3.5385,74.3555,4.0638,64.3047,4.0881,54.2539,4.1617,44.2031,3.709,34.1523,3.9325,24.1016,3.8798,14.0508,4,4" style="stroke: #383838; stroke-width: 1.0;"/><text fill="#000000" font-family="sans-serif" font-size="13" font-weight="bold" lengthAdjust="spacingAndGlyphs" textLength="55" x="168" y="16.0669">domain</text><polygon fill="#DDDDDD" points="445,4,445,4.2102,454.7917,3.5857,464.5833,4.1933,474.375,4.3997,484.1667,3.2866,493.9583,3.9223,503.75,3.5735,513.5417,3.6165,523.3333,3.9318,533.125,3.3086,542.9167,4.5536,552.7083,3.3697,562.5,3.8022,572.2917,4.4319,582.0833,3.9142,591.875,4.0682,601.6667,3.9681,611.4583,4.1785,621.25,4.2391,631.0417,4.5857,640.8333,4.6711,650.625,4.6793,660.4167,4.2546,670.2083,4.4636,680,4,680.7022,4,679.2788,14.0508,680.6785,24.1016,679.7035,34.1523,680.5338,44.2031,679.505,54.2539,679.9315,64.3047,680.7416,74.3555,679.9513,84.4063,680.1053,94.457,680.3386,104.5078,680.4162,114.5586,679.9961,124.6094,680.2872,134.6602,679.4276,144.7109,680.2844,154.7617,680.5482,164.8125,680.4445,174.8633,680.613,184.9141,679.5169,194.9648,679.3478,205.0156,679.3786,215.0664,679.9411,225.1172,679.8035,235.168,680.6814,245.2188,679.8253,255.2695,679.6569,265.3203,680.2283,275.3711,679.3332,285.4219,679.4809,295.4727,680,305.5234,680,306.1724,670.2083,305.9591,660.4167,306.2579,650.625,305.2016,640.8333,305.8426,631.0417,306.1139,621.25,305.051,611.4583,305.4276,601.6667,305.6494,591.875,306.1752,582.0833,305.5192,572.2917,305.986,562.5,304.9697,552.7083,304.8462,542.9167,306.0271,533.125,304.8065,523.3333,306.0324,513.5417,305.7301,503.75,305.2555,493.9583,305.1697,484.1667,305.9822,474.375,305.2241,464.5833,306.1153,454.7917,304.9707,445,305.5234,445.6174,305.5234,445.4843,295.4727,445.245,285.4219,445.0472,275.3711,445.7266,265.3203,445.6136,255.2695,445.1693,245.2188,445.2682,235.168,444.8697,225.1172,445.7165,215.0664,445.1549,205.0156,445.1726,194.9648,444.3916,184.9141,444.5948,174.8633,445.5307,164.8125,445.4298,154.7617,444.9571,144.7109,444.6778,134.6602,444.7811,124.6094,444.3138,114.5586,445.4147,104.5078,445.7396,94.457,445.5264,84.4063,445.6949,74.3555,444.8633,64.3047,445.0872,54.2539,444.6124,44.2031,445.284,34.1523,445.2468,24.1016,445.5524,14.0508,445,4" style="stroke: #383838; stroke-width: 1.0;"/><text fill="#000000" font-family="sans-serif" font-size="13" font-weight="bold" lengthAdjust="spacingAndGlyphs" textLength="67" x="529" y="16.0669">adapters</text><polygon fill="#F8F8F8" filter="url(#f1x02eyckl0kdf)" points="120.5,97.5625,120.5,97.7727,130.3182,97.1482,140.1364,97.7558,149.9545,97.9622,159.7727,96.8491,169.5909,97.4848,179.4091,97.136,189.2273,97.179,199.0455,97.4943,208.8636,96.8711,218.6818,98.1161,228.5,97.5625,228.2899,97.5625,228.4341,103.6219,228.644,109.6813,228.4714,115.7406,228.5227,121.8,228.5,127.8594,228.5,127.8274,218.6818,128.0379,208.8636,128.0985,199.0455,128.4451,189.2273,128.5304,179.4091,128.5386,169.5909,128.114,159.7727,128.323,149.9545,128.5616,140.1364,127.1382,130.3182,128.5379,120.5,127.8594,120.4012,127.8594,120.6779,121.8,120.335,115.7406,120.4772,109.6813,120.7472,103.6219,120.5,97.5625" style="stroke: #383838; stroke-width: 1.5;"/><text fill="#000000" font-family="sans-serif" font-size="14" lengthAdjust="spacingAndGlyphs" textLength="94" x="127.5" y="117.5576">domainobject</text><path d="M51,58.4297 L51.2802,58.4297 L50.4476,68.5534 L51.2577,78.6772 L51.5329,88.8009 L50.0488,98.9247 L50.8964,109.0484 L50.4313,119.1722 L50.4887,129.2959 L50.9091,139.4197 L50.0782,149.5434 L51.7382,159.6672 L50.1596,169.7909 L50.7363,179.9147 L51.5759,190.0384 L50.8856,200.1622 L51.091,210.2859 L50.9574,220.4097 L51.238,230.5334 L51.3188,240.6572 L51.7809,250.7809 L51.8947,260.9047 L51.9057,271.0284 L51.3395,281.1522 L51.6181,291.2759 L51.9363,301.3997 L51,311.5234 " fill="none" style="stroke: #383838; stroke-width: 1.0; stroke-dasharray: 5.0,5.0;"/><path d="M176.5,130.2109 L176.7802,130.2109 L175.9476,140.2839 L176.7577,150.3568 L177.0329,160.4297 L175.5488,170.5026 L176.3964,180.5755 L175.9313,190.6484 L175.9887,200.7214 L176.4091,210.7943 L175.5782,220.8672 L177.2382,230.9401 L175.6596,241.013 L176.2363,251.0859 L177.0759,261.1589 L176.3856,271.2318 L176.591,281.3047 L176.4574,291.3776 L176.738,301.4505 L176.5,311.5234 " fill="none" style="stroke: #383838; stroke-width: 1.0; stroke-dasharray: 5.0,5.0;"/><path d="M334,58.4297 L334.2802,58.4297 L333.4476,68.5534 L334.2577,78.6772 L334.5329,88.8009 L333.0488,98.9247 L333.8964,109.0484 L333.4313,119.1722 L333.4887,129.2959 L333.9091,139.4197 L333.0782,149.5434 L334.7382,159.6672 L333.1596,169.7909 L333.7363,179.9147 L334.5759,190.0384 L333.8856,200.1622 L334.091,210.2859 L333.9574,220.4097 L334.238,230.5334 L334.3188,240.6572 L334.7809,250.7809 L334.8947,260.9047 L334.9057,271.0284 L334.3395,281.1522 L334.6181,291.2759 L334.9363,301.3997 L334,311.5234 " fill="none" style="stroke: #383838; stroke-width: 1.0; stroke-dasharray: 5.0,5.0;"/><path d="M492,58.4297 L492.2802,58.4297 L491.4476,68.5534 L492.2577,78.6772 L492.5329,88.8009 L491.0488,98.9247 L491.8964,109.0484 L491.4313,119.1722 L491.4887,129.2959 L491.9091,139.4197 L491.0782,149.5434 L492.7382,159.6672 L491.1596,169.7909 L491.7363,179.9147 L492.5759,190.0384 L491.8856,200.1622 L492.091,210.2859 L491.9574,220.4097 L492.238,230.5334 L492.3188,240.6572 L492.7809,250.7809 L492.8947,260.9047 L492.9057,271.0284 L492.3395,281.1522 L492.6181,291.2759 L492.9363,301.3997 L492,311.5234 " fill="none" style="stroke: #383838; stroke-width: 1.0; stroke-dasharray: 5.0,5.0;"/><path d="M611,58.4297 L611.2802,58.4297 L610.4476,68.5534 L611.2577,78.6772 L611.5329,88.8009 L610.0488,98.9247 L610.8964,109.0484 L610.4313,119.1722 L610.4887,129.2959 L610.9091,139.4197 L610.0782,149.5434 L611.7382,159.6672 L610.1596,169.7909 L610.7363,179.9147 L611.5759,190.0384 L610.8856,200.1622 L611.091,210.2859 L610.9574,220.4097 L611.238,230.5334 L611.3188,240.6572 L611.7809,250.7809 L611.8947,260.9047 L611.9057,271.0284 L611.3395,281.1522 L611.6181,291.2759 L611.9363,301.3997 L611,311.5234 " fill="none" style="stroke: #383838; stroke-width: 1.0; stroke-dasharray: 5.0,5.0;"/><polygon fill="#F8F8F8" filter="url(#f1x02eyckl0kdf)" points="8,23.1328,8,23.343,18.375,22.7185,28.75,23.3261,39.125,23.5325,49.5,22.4194,59.875,23.0551,70.25,22.7063,80.625,22.7493,91,23.1328,90.9773,23.1328,90.7695,29.1922,91.1845,35.2516,90.7899,41.3109,90.9341,47.3703,91,53.4297,91,53.8616,80.625,53.3439,70.25,53.4979,59.875,53.3977,49.5,53.6082,39.125,53.6688,28.75,54.0154,18.375,54.1007,8,53.4297,8.2264,53.4297,8.0849,47.3703,8.1545,41.3109,8.2341,35.2516,7.7596,29.1922,8,23.1328" style="stroke: #383838; stroke-width: 1.5;"/><text fill="#000000" font-family="sans-serif" font-size="14" lengthAdjust="spacingAndGlyphs" textLength="69" x="15" y="43.1279">command</text><polygon fill="#F8F8F8" filter="url(#f1x02eyckl0kdf)" points="286,23.1328,286,23.343,296.3333,22.7185,306.6667,23.3261,317,23.5325,327.3333,22.4194,337.6667,23.0551,348,22.7063,358.3333,22.7493,368.6667,23.0647,379,23.1328,378.7695,23.1328,379.1845,29.1922,378.7899,35.2516,378.9341,41.3109,379.144,47.3703,379,53.4297,379,53.3439,368.6667,53.4979,358.3333,53.3977,348,53.6082,337.6667,53.6688,327.3333,54.0154,317,54.1007,306.6667,54.1089,296.3333,53.6843,286,53.4297,286.1545,53.4297,286.2341,47.3703,285.7596,41.3109,286.2262,35.2516,285.9012,29.1922,286,23.1328" style="stroke: #383838; stroke-width: 1.5;"/><text fill="#000000" font-family="sans-serif" font-size="14" lengthAdjust="spacingAndGlyphs" textLength="79" x="293" y="43.1279">messenger</text><polygon fill="#F8F8F8" filter="url(#f1x02eyckl0kdf)" points="449,23.1328,449,23.343,459.375,22.7185,469.75,23.3261,480.125,23.5325,490.5,22.4194,500.875,23.0551,511.25,22.7063,521.625,22.7493,532,23.1328,531.9773,23.1328,531.7695,29.1922,532.1845,35.2516,531.7899,41.3109,531.9341,47.3703,532,53.4297,532,53.8616,521.625,53.3439,511.25,53.4979,500.875,53.3977,490.5,53.6082,480.125,53.6688,469.75,54.0154,459.375,54.1007,449,53.4297,449.2264,53.4297,449.0849,47.3703,449.1545,41.3109,449.2341,35.2516,448.7596,29.1922,449,23.1328" style="stroke: #383838; stroke-width: 1.5;"/><text fill="#000000" font-family="sans-serif" font-size="14" lengthAdjust="spacingAndGlyphs" textLength="69" x="456" y="43.1279">repository</text><polygon fill="#F8F8F8" filter="url(#f1x02eyckl0kdf)" points="546,23.1328,546,23.343,555.6923,22.7185,565.3846,23.3261,575.0769,23.5325,584.7692,22.4194,594.4615,23.0551,604.1538,22.7063,613.8462,22.7493,623.5385,23.0647,633.2308,22.4414,642.9231,23.6865,652.6154,22.5025,662.3077,22.935,672,23.1328,672.144,23.1328,671.9714,29.1922,672.0227,35.2516,671.9894,41.3109,672.0595,47.3703,672,53.4297,672,53.6688,662.3077,54.0154,652.6154,54.1007,642.9231,54.1089,633.2308,53.6843,623.5385,53.8933,613.8462,54.1319,604.1538,52.7085,594.4615,54.1082,584.7692,53.1332,575.0769,53.9635,565.3846,52.9347,555.6923,53.3612,546,53.4297,546.2472,53.4297,545.9838,47.3703,546.0351,41.3109,546.1129,35.2516,546.1387,29.1922,546,23.1328" style="stroke: #383838; stroke-width: 1.5;"/><text fill="#000000" font-family="sans-serif" font-size="14" lengthAdjust="spacingAndGlyphs" textLength="112" x="553" y="43.1279">messageengine</text><polygon fill="#383838" points="480.5,85.5625,480.526,85.6275,482.4487,86.2343,484.5239,87.2223,486.5495,88.0862,488.4117,88.5417,490.5,89.5625,490.4904,89.5384,488.4472,90.2305,486.4525,91.0438,484.4916,91.9414,482.4144,92.5485,480.5,93.5625,480.6305,93.693,481.1514,92.6139,482.0534,91.9159,483.0018,91.2643,483.6798,90.3423,484.5,89.5625,484.5161,89.5786,483.6925,88.755,482.9421,88.0046,482.1564,87.2189,481.438,86.5005,480.5,85.5625" style="stroke: #383838; stroke-width: 1.0;"/><path d="M51.5,89.5625 L51.5,89.8427 L61.3864,89.0101 L71.2727,89.8202 L81.1591,90.0954 L91.0455,88.6113 L100.9318,89.4589 L110.8182,88.9938 L120.7045,89.0512 L130.5909,89.4716 L140.4773,88.6407 L150.3636,90.3007 L160.25,88.7221 L170.1364,89.2988 L180.0227,90.1384 L189.9091,89.4481 L199.7955,89.6535 L209.6818,89.5199 L219.5682,89.8005 L229.4545,89.8813 L239.3409,90.3434 L249.2273,90.4572 L259.1136,90.4682 L269,89.902 L278.8864,90.1806 L288.7727,90.4988 L298.6591,88.6009 L308.5455,90.4672 L318.4318,89.1672 L328.3182,90.2742 L338.2045,88.9025 L348.0909,89.4712 L357.9773,90.5513 L367.8636,89.4975 L377.75,89.7029 L387.6364,90.014 L397.5227,90.1175 L407.4091,89.5573 L417.2955,89.9455 L427.1818,88.7993 L437.0682,89.9417 L446.9545,90.2934 L456.8409,90.1552 L466.7273,90.3799 L476.6136,88.9184 L486.5,89.5625 " fill="none" style="stroke: #383838; stroke-width: 1.0;"/><text fill="#000000" font-family="sans-serif" font-size="13" lengthAdjust="spacingAndGlyphs" textLength="76" x="58.5" y="84.4966">byId(12123)</text><polygon fill="#383838" points="243.5,114.6953,243.526,114.7604,241.4487,115.3671,239.5239,116.3551,237.5495,117.219,235.4117,117.6745,233.5,118.6953,233.4904,118.6713,235.4472,119.3633,237.4525,120.1766,239.4916,121.0742,241.4144,121.6813,243.5,122.6953,243.6305,122.8258,242.5514,121.7468,241.8534,121.0487,241.2018,120.3971,240.2798,119.4751,239.5,118.6953,239.5161,118.7114,240.2925,117.8878,241.1421,117.1374,241.9564,116.3517,242.838,115.6334,243.5,114.6953" style="stroke: #383838; stroke-width: 1.0;"/><path d="M237.5,118.6953 L237.5,118.9756 L247.66,118.1429 L257.82,118.953 L267.98,119.2282 L278.14,117.7441 L288.3,118.5917 L298.46,118.1267 L308.62,118.184 L318.78,118.6044 L328.94,117.7735 L339.1,119.4335 L349.26,117.8549 L359.42,118.4316 L369.58,119.2712 L379.74,118.5809 L389.9,118.7863 L400.06,118.6527 L410.22,118.9333 L420.38,119.0142 L430.54,119.4762 L440.7,119.5901 L450.86,119.601 L461.02,119.0348 L471.18,119.3134 L481.34,119.6316 L491.5,118.6953 " fill="none" style="stroke: #383838; stroke-width: 1.0;"/><text fill="#000000" font-family="sans-serif" font-size="13" lengthAdjust="spacingAndGlyphs" textLength="41" x="249.5" y="113.6294">create</text><polygon fill="#F8F8F8" filter="url(#f1x02eyckl0kdf)" points="120.5,97.5625,120.5,97.7727,130.3182,97.1482,140.1364,97.7558,149.9545,97.9622,159.7727,96.8491,169.5909,97.4848,179.4091,97.136,189.2273,97.179,199.0455,97.4943,208.8636,96.8711,218.6818,98.1161,228.5,97.5625,228.2899,97.5625,228.4341,103.6219,228.644,109.6813,228.4714,115.7406,228.5227,121.8,228.5,127.8594,228.5,127.8274,218.6818,128.0379,208.8636,128.0985,199.0455,128.4451,189.2273,128.5304,179.4091,128.5386,169.5909,128.114,159.7727,128.323,149.9545,128.5616,140.1364,127.1382,130.3182,128.5379,120.5,127.8594,120.4012,127.8594,120.6779,121.8,120.335,115.7406,120.4772,109.6813,120.7472,103.6219,120.5,97.5625" style="stroke: #383838; stroke-width: 1.5;"/><text fill="#000000" font-family="sans-serif" font-size="14" lengthAdjust="spacingAndGlyphs" textLength="94" x="127.5" y="117.5576">domainobject</text><polygon fill="#383838" points="164.5,159.9922,164.526,160.0572,166.4487,160.664,168.5239,161.652,170.5495,162.5159,172.4117,162.9714,174.5,163.9922,174.4904,163.9681,172.4472,164.6602,170.4525,165.4735,168.4916,166.3711,166.4144,166.9782,164.5,167.9922,164.6305,168.1227,165.1514,167.0436,166.0534,166.3456,167.0018,165.694,167.6798,164.772,168.5,163.9922,168.5161,164.0083,167.6925,163.1847,166.9421,162.4343,166.1564,161.6486,165.438,160.9302,164.5,159.9922" style="stroke: #383838; stroke-width: 1.0;"/><path d="M51.5,163.9922 L51.5,164.2724 L61.4167,163.4398 L71.3333,164.2499 L81.25,164.5251 L91.1667,163.041 L101.0833,163.8886 L111,163.4235 L120.9167,163.4809 L130.8333,163.9013 L140.75,163.0704 L150.6667,164.7304 L160.5833,163.1518 L170.5,163.9922 " fill="none" style="stroke: #383838; stroke-width: 1.0;"/><text fill="#000000" font-family="sans-serif" font-size="13" lengthAdjust="spacingAndGlyphs" textLength="101" x="58.5" y="158.9263">do the business</text><polygon fill="#383838" points="322.5,189.125,322.526,189.19,324.4487,189.7968,326.5239,190.7848,328.5495,191.6487,330.4117,192.1042,332.5,193.125,332.4904,193.1009,330.4472,193.793,328.4525,194.6063,326.4916,195.5039,324.4144,196.111,322.5,197.125,322.6305,197.2555,323.1514,196.1764,324.0534,195.4784,325.0018,194.8268,325.6798,193.9048,326.5,193.125,326.5161,193.1411,325.6925,192.3175,324.9421,191.5671,324.1564,190.7814,323.438,190.063,322.5,189.125" style="stroke: #383838; stroke-width: 1.0;"/><path d="M176.5,193.125 L176.5,193.4052 L186.6333,192.5726 L196.7667,193.3827 L206.9,193.6579 L217.0333,192.1738 L227.1667,193.0214 L237.3,192.5563 L247.4333,192.6137 L257.5667,193.0341 L267.7,192.2032 L277.8333,193.8632 L287.9667,192.2846 L298.1,192.8613 L308.2333,193.7009 L318.3667,193.0106 L328.5,193.125 " fill="none" style="stroke: #383838; stroke-width: 1.0;"/><text fill="#000000" font-family="sans-serif" font-size="13" lengthAdjust="spacingAndGlyphs" textLength="134" x="183.5" y="188.0591">send some message</text><path d="M334.5,222.2578 L334.5,222.3512 L342.9,222.0737 L351.3,222.3437 L359.7,222.4354 L368.1,221.9407 L376.5,222.2578 " fill="none" style="stroke: #383838; stroke-width: 1.0;"/><path d="M376.5,222.2578 L376.5934,222.2578 L376.3159,224.8578 L376.5859,227.4578 L376.6776,230.0578 L376.1829,232.6578 L376.5,235.2578 " fill="none" style="stroke: #383838; stroke-width: 1.0;"/><path d="M335.5,235.2578 L335.5,235.3512 L343.7,235.0737 L351.9,235.3437 L360.1,235.4354 L368.3,234.9407 L376.5,235.2578 " fill="none" style="stroke: #383838; stroke-width: 1.0;"/><polygon fill="#383838" points="345.5,231.2578,345.526,231.3229,343.4487,231.9296,341.5239,232.9176,339.5495,233.7815,337.4117,234.237,335.5,235.2578,335.4904,235.2338,337.4472,235.9258,339.4525,236.7391,341.4916,237.6367,343.4144,238.2438,345.5,239.2578,345.6305,239.3883,344.5514,238.3093,343.8534,237.6112,343.2018,236.9596,342.2798,236.0376,341.5,235.2578,341.5161,235.2739,342.2925,234.4503,343.1421,233.6999,343.9564,232.9142,344.838,232.1959,345.5,231.2578" style="stroke: #383838; stroke-width: 1.0;"/><text fill="#000000" font-family="sans-serif" font-size="13" lengthAdjust="spacingAndGlyphs" textLength="144" x="341.5" y="217.1919">create some message</text><polygon fill="#383838" points="480.5,260.3906,480.526,260.4557,482.4487,261.0624,484.5239,262.0504,486.5495,262.9143,488.4117,263.3698,490.5,264.3906,490.4904,264.3666,488.4472,265.0586,486.4525,265.8719,484.4916,266.7695,482.4144,267.3767,480.5,268.3906,480.6305,268.5211,481.1514,267.4421,482.0534,266.744,483.0018,266.0924,483.6798,265.1704,484.5,264.3906,484.5161,264.4067,483.6925,263.5831,482.9421,262.8327,482.1564,262.047,481.438,261.3287,480.5,260.3906" style="stroke: #383838; stroke-width: 1.0;"/><path d="M51.5,264.3906 L51.5,264.6709 L61.3864,263.8382 L71.2727,264.6483 L81.1591,264.9235 L91.0455,263.4394 L100.9318,264.287 L110.8182,263.822 L120.7045,263.8793 L130.5909,264.2997 L140.4773,263.4688 L150.3636,265.1288 L160.25,263.5503 L170.1364,264.1269 L180.0227,264.9666 L189.9091,264.2763 L199.7955,264.4816 L209.6818,264.348 L219.5682,264.6287 L229.4545,264.7095 L239.3409,265.1715 L249.2273,265.2854 L259.1136,265.2963 L269,264.7301 L278.8864,265.0087 L288.7727,265.3269 L298.6591,263.429 L308.5455,265.2953 L318.4318,263.9953 L328.3182,265.1024 L338.2045,263.7306 L348.0909,264.2993 L357.9773,265.3794 L367.8636,264.3256 L377.75,264.531 L387.6364,264.8421 L397.5227,264.9456 L407.4091,264.3854 L417.2955,264.7736 L427.1818,263.6274 L437.0682,264.7698 L446.9545,265.1216 L456.8409,264.9833 L466.7273,265.208 L476.6136,263.7465 L486.5,264.3906 " fill="none" style="stroke: #383838; stroke-width: 1.0;"/><text fill="#000000" font-family="sans-serif" font-size="13" lengthAdjust="spacingAndGlyphs" textLength="127" x="58.5" y="259.3247">save(domainobject)</text><polygon fill="#383838" points="599,289.5234,599.026,289.5885,600.9487,290.1952,603.0239,291.1833,605.0495,292.0471,606.9117,292.5026,609,293.5234,608.9904,293.4994,606.9472,294.1914,604.9525,295.0047,602.9916,295.9023,600.9144,296.5095,599,297.5234,599.1305,297.6539,599.6514,296.5749,600.5534,295.8768,601.5018,295.2252,602.1798,294.3032,603,293.5234,603.0161,293.5395,602.1925,292.7159,601.4421,291.9655,600.6564,291.1798,599.938,290.4615,599,289.5234" style="stroke: #383838; stroke-width: 1.0;"/><path d="M51.5,293.5234 L51.5,293.8037 L61.5636,292.971 L71.6273,293.7812 L81.6909,294.0563 L91.7545,292.5722 L101.8182,293.4198 L111.8818,292.9548 L121.9455,293.0121 L132.0091,293.4326 L142.0727,292.6016 L152.1364,294.2616 L162.2,292.6831 L172.2636,293.2597 L182.3273,294.0994 L192.3909,293.4091 L202.4545,293.6144 L212.5182,293.4808 L222.5818,293.7615 L232.6455,293.8423 L242.7091,294.3044 L252.7727,294.4182 L262.8364,294.4291 L272.9,293.8629 L282.9636,294.1416 L293.0273,294.4597 L303.0909,292.5619 L313.1545,294.4281 L323.2182,293.1281 L333.2818,294.2352 L343.3455,292.8634 L353.4091,293.4321 L363.4727,294.5122 L373.5364,293.4585 L383.6,293.6638 L393.6636,293.9749 L403.7273,294.0784 L413.7909,293.5182 L423.8545,293.9064 L433.9182,292.7602 L443.9818,293.9026 L454.0455,294.2544 L464.1091,294.1161 L474.1727,294.3408 L484.2364,292.8793 L494.3,292.6539 L504.3636,292.6949 L514.4273,293.4449 L524.4909,293.2614 L534.5545,294.432 L544.6182,293.2905 L554.6818,293.066 L564.7455,293.8278 L574.8091,292.6343 L584.8727,292.8313 L594.9364,294.3887 L605,293.5234 " fill="none" style="stroke: #383838; stroke-width: 1.0;"/><text fill="#000000" font-family="sans-serif" font-size="13" lengthAdjust="spacingAndGlyphs" textLength="131" x="58.5" y="288.4575">commit(messenger)</text><!--
@startuml command-execution-with-repo-and-message
skinparam {
  handwritten true
  monochrome true
}
hide footbox
box "adapters"
participant repository order 30
participant messageengine order 30
end box
box "domain"
participant command order 10
participant domainobject order 20
participant messenger order 20
end box
command -> repository: byId(12123)
create domainobject
repository -> domainobject: create
command -> domainobject: do the business
domainobject -> messenger: send some message
messenger -> messenger: create some message  
command -> repository: save(domainobject)
command -> messageengine: commit(messenger)
@enduml

PlantUML version 1.2018.13(Mon Nov 26 18:11:51 CET 2018)
(GPL source distribution)
Java Runtime: OpenJDK Runtime Environment
JVM: OpenJDK 64-Bit Server VM
Java Version: 13.0.3+3-MTS
Operating System: Linux
OS Version: 5.4.0-52-generic
Default Encoding: UTF-8
Language: en
Country: US
--></g></svg>