<?xml version="1.0" encoding="UTF-8" standalone="no"?><svg xmlns="http://www.w3.org/2000/svg" xmlns:xlink="http://www.w3.org/1999/xlink" contentScriptType="application/ecmascript" contentStyleType="text/css" height="248px" preserveAspectRatio="none" style="width:611px;height:248px;" version="1.1" viewBox="0 0 611 248" width="611px" zoomAndPan="magnify"><defs><filter height="300%" id="fs9cdc6cgsxuo" width="300%" x="-1" y="-1"><feGaussianBlur result="blurOut" stdDeviation="2.0"/><feColorMatrix in="blurOut" result="blurOut2" type="matrix" values="0 0 0 0 0 0 0 0 0 0 0 0 0 0 0 0 0 0 .4 0"/><feOffset dx="4.0" dy="4.0" in="blurOut2" result="blurOut3"/><feBlend in="SourceGraphic" in2="blurOut3" mode="normal"/></filter></defs><g><polygon fill="#DDDDDD" points="4,4,4,4.2102,14.1087,3.5857,24.2174,4.1933,34.3261,4.3997,44.4348,3.2866,54.5435,3.9223,64.6522,3.5735,74.7609,3.6165,84.8696,3.9318,94.9783,3.3086,105.087,4.5536,115.1957,3.3697,125.3043,3.8022,135.413,4.4319,145.5217,3.9142,155.6304,4.0682,165.7391,3.9681,175.8478,4.1785,185.9565,4.2391,196.0652,4.5857,206.1739,4.6711,216.2826,4.6793,226.3913,4.2546,236.5,4,236.9636,4,237.2022,13.8373,235.7788,23.6746,237.1785,33.5119,236.2035,43.3492,237.0338,53.1865,236.005,63.0238,236.4315,72.8611,237.2416,82.6984,236.4513,92.5357,236.6053,102.373,236.8386,112.2103,236.9162,122.0476,236.4961,131.8849,236.7872,141.7221,235.9276,151.5594,236.7844,161.3967,237.0482,171.234,236.9445,181.0713,237.113,190.9086,236.0169,200.7459,235.8478,210.5832,235.8786,220.4205,236.5,230.2578,236.5,230.1989,226.3913,230.0613,216.2826,230.9392,206.1739,230.0831,196.0652,229.9148,185.9565,230.4861,175.8478,229.591,165.7391,229.7387,155.6304,230.9068,145.5217,230.6935,135.413,230.9923,125.3043,229.936,115.1957,230.577,105.087,230.8482,94.9783,229.7854,84.8696,230.162,74.7609,230.3838,64.6522,230.9096,54.5435,230.2536,44.4348,230.7204,34.3261,229.704,24.2174,229.5806,14.1087,230.7614,4,230.2578,3.2831,230.2578,4.509,220.4205,4.2066,210.5832,3.7321,200.7459,3.6462,190.9086,4.4588,181.0713,3.7007,171.234,4.5919,161.3967,3.4473,151.5594,4.6174,141.7221,4.4843,131.8849,4.245,122.0476,4.0472,112.2103,4.7266,102.373,4.6136,92.5357,4.1693,82.6984,4.2682,72.8611,3.8697,63.0238,4.7165,53.1865,4.1549,43.3492,4.1726,33.5119,3.3916,23.6746,3.5948,13.8373,4,4" style="stroke: #383838; stroke-width: 1.0;"/><text fill="#000000" font-family="sans-serif" font-size="13" font-weight="bold" lengthAdjust="spacingAndGlyphs" textLength="55" x="92.75" y="16.0669">domain</text><polygon fill="#DDDDDD" points="250,4,250,4.2102,259.5,3.5857,269,4.1933,278.5,4.3997,288,3.2866,297.5,3.9223,307,3.5735,316.5,3.6165,326,3.9318,335.5,3.3086,345,4,345.5536,4,344.3697,13.8373,344.8022,23.6746,345.4319,33.5119,344.9142,43.3492,345.0682,53.1865,344.9681,63.0238,345.1785,72.8611,345.2391,82.6984,345.5857,92.5357,345.6711,102.373,345.6793,112.2103,345.2546,122.0476,345.4636,131.8849,345.7022,141.7221,344.2788,151.5594,345.6785,161.3967,344.7035,171.234,345.5338,181.0713,344.505,190.9086,344.9315,200.7459,345.7416,210.5832,344.9513,220.4205,345,230.2578,345,230.3631,335.5,230.5964,326,230.674,316.5,230.2539,307,230.545,297.5,229.6854,288,230.5422,278.5,230.806,269,230.7023,259.5,230.8708,250,230.2578,249.5169,230.2578,249.3478,220.4205,249.3786,210.5832,249.9411,200.7459,249.8035,190.9086,250.6814,181.0713,249.8253,171.234,249.6569,161.3967,250.2283,151.5594,249.3332,141.7221,249.4809,131.8849,250.649,122.0476,250.4357,112.2103,250.7345,102.373,249.6782,92.5357,250.3192,82.6984,250.5904,72.8611,249.5276,63.0238,249.9041,53.1865,250.126,43.3492,250.6518,33.5119,249.9958,23.6746,250.4626,13.8373,250,4" style="stroke: #383838; stroke-width: 1.0;"/><text fill="#000000" font-family="sans-serif" font-size="13" font-weight="bold" lengthAdjust="spacingAndGlyphs" textLength="53" x="271" y="16.0669">adaper</text><polygon fill="#F8F8F8" filter="url(#fs9cdc6cgsxuo)" points="120.5,122.6953,120.5,122.9055,130.3182,122.281,140.1364,122.8886,149.9545,123.095,159.7727,121.9819,169.5909,122.6176,179.4091,122.2688,189.2273,122.3118,199.0455,122.6272,208.8636,122.0039,218.6818,123.249,228.5,122.6953,228.2899,122.6953,228.4341,128.7547,228.644,134.8141,228.4714,140.8734,228.5227,146.9328,228.5,152.9922,228.5,152.9602,218.6818,153.1707,208.8636,153.2313,199.0455,153.5779,189.2273,153.6632,179.4091,153.6714,169.5909,153.2468,159.7727,153.4558,149.9545,153.6944,140.1364,152.271,130.3182,153.6707,120.5,152.9922,120.4012,152.9922,120.6779,146.9328,120.335,140.8734,120.4772,134.8141,120.7472,128.7547,120.5,122.6953" style="stroke: #383838; stroke-width: 1.5;"/><text fill="#000000" font-family="sans-serif" font-size="14" lengthAdjust="spacingAndGlyphs" textLength="94" x="127.5" y="142.6904">domainobject</text><path d="M51,58.4297 L51.2802,58.4297 L50.4476,68.309 L51.2577,78.1884 L51.5329,88.0677 L50.0488,97.947 L50.8964,107.8264 L50.4313,117.7057 L50.4887,127.5851 L50.9091,137.4644 L50.0782,147.3438 L51.7382,157.2231 L50.1596,167.1024 L50.7363,176.9818 L51.5759,186.8611 L50.8856,196.7405 L51.091,206.6198 L50.9574,216.4991 L51.238,226.3785 L51,236.2578 " fill="none" style="stroke: #383838; stroke-width: 1.0; stroke-dasharray: 5.0,5.0;"/><path d="M176.5,155.3438 L176.7802,155.3438 L175.9476,165.458 L176.7577,175.5723 L177.0329,185.6865 L175.5488,195.8008 L176.3964,205.915 L175.9313,216.0293 L175.9887,226.1436 L176.5,236.2578 " fill="none" style="stroke: #383838; stroke-width: 1.0; stroke-dasharray: 5.0,5.0;"/><path d="M297,58.4297 L297.2802,58.4297 L296.4476,68.309 L297.2577,78.1884 L297.5329,88.0677 L296.0488,97.947 L296.8964,107.8264 L296.4313,117.7057 L296.4887,127.5851 L296.9091,137.4644 L296.0782,147.3438 L297.7382,157.2231 L296.1596,167.1024 L296.7363,176.9818 L297.5759,186.8611 L296.8856,196.7405 L297.091,206.6198 L296.9574,216.4991 L297.238,226.3785 L297,236.2578 " fill="none" style="stroke: #383838; stroke-width: 1.0; stroke-dasharray: 5.0,5.0;"/><polygon fill="#F8F8F8" filter="url(#fs9cdc6cgsxuo)" points="8,23.1328,8,23.343,18.375,22.7185,28.75,23.3261,39.125,23.5325,49.5,22.4194,59.875,23.0551,70.25,22.7063,80.625,22.7493,91,23.1328,90.9773,23.1328,90.7695,29.1922,91.1845,35.2516,90.7899,41.3109,90.9341,47.3703,91,53.4297,91,53.8616,80.625,53.3439,70.25,53.4979,59.875,53.3977,49.5,53.6082,39.125,53.6688,28.75,54.0154,18.375,54.1007,8,53.4297,8.2264,53.4297,8.0849,47.3703,8.1545,41.3109,8.2341,35.2516,7.7596,29.1922,8,23.1328" style="stroke: #383838; stroke-width: 1.5;"/><text fill="#000000" font-family="sans-serif" font-size="14" lengthAdjust="spacingAndGlyphs" textLength="69" x="15" y="43.1279">command</text><polygon fill="#F8F8F8" filter="url(#fs9cdc6cgsxuo)" points="254,23.1328,254,23.343,264.375,22.7185,274.75,23.3261,285.125,23.5325,295.5,22.4194,305.875,23.0551,316.25,22.7063,326.625,22.7493,337,23.1328,336.9773,23.1328,336.7695,29.1922,337.1845,35.2516,336.7899,41.3109,336.9341,47.3703,337,53.4297,337,53.8616,326.625,53.3439,316.25,53.4979,305.875,53.3977,295.5,53.6082,285.125,53.6688,274.75,54.0154,264.375,54.1007,254,53.4297,254.2264,53.4297,254.0849,47.3703,254.1545,41.3109,254.2341,35.2516,253.7596,29.1922,254,23.1328" style="stroke: #383838; stroke-width: 1.5;"/><text fill="#000000" font-family="sans-serif" font-size="14" lengthAdjust="spacingAndGlyphs" textLength="69" x="261" y="43.1279">repository</text><polygon fill="#383838" points="285.5,98.1289,285.526,98.194,287.4487,98.8007,289.5239,99.7887,291.5495,100.6526,293.4117,101.1081,295.5,102.1289,295.4904,102.1049,293.4472,102.7969,291.4525,103.6102,289.4916,104.5078,287.4144,105.1149,285.5,106.1289,285.6305,106.2594,286.1514,105.1803,287.0534,104.4823,288.0018,103.8307,288.6798,102.9087,289.5,102.1289,289.5161,102.145,288.6925,101.3214,287.9421,100.571,287.1564,99.7853,286.438,99.067,285.5,98.1289" style="stroke: #383838; stroke-width: 1.0;"/><path d="M51.5,102.1289 L51.5,102.4091 L61.5,101.5765 L71.5,102.3866 L81.5,102.6618 L91.5,101.1777 L101.5,102.0253 L111.5,101.5602 L121.5,101.6176 L131.5,102.038 L141.5,101.2071 L151.5,102.8671 L161.5,101.2885 L171.5,101.8652 L181.5,102.7048 L191.5,102.0145 L201.5,102.2199 L211.5,102.0863 L221.5,102.3669 L231.5,102.4478 L241.5,102.9098 L251.5,103.0236 L261.5,103.0346 L271.5,102.4684 L281.5,102.747 L291.5,102.1289 " fill="none" style="stroke: #383838; stroke-width: 1.0;"/><text fill="#000000" font-family="sans-serif" font-size="13" lengthAdjust="spacingAndGlyphs" textLength="76" x="58.5" y="97.063">byId(12123)</text><path d="M302,73.4297 L302.1868,73.4297 L301.6317,81.4297 L302.1718,89.4297 L302.3553,97.4297 L301.3659,105.4297 L302,113.4297 L302,113.2225 L311.9,112.2924 L321.8,112.407 L331.7,113.2479 L341.6,111.586 L351.5,114.9061 L361.4,111.7489 L371.3,112.9023 L381.2,114.5815 L391.1,113.2009 L401,113.6117 L410.9,113.3445 L420.8,113.9058 L430.7,114.0674 L440.6,114.9915 L450.5,115.2192 L460.4,115.241 L470.3,114.1087 L480.2,114.6659 L490.1,115.3023 L500,111.5065 L509.9,115.239 L519.8,112.639 L529.7,114.8532 L539.6,112.1096 L549.5,113.247 L559.4,115.4073 L569.3,113.2997 L579.2,113.7105 L589.1,114.3327 L599,113.4297 L599.37,113.4297 L598.9965,107.4297 L599.2553,101.4297 L598.4912,95.4297 L599.2528,89.4297 L599,83.4297 L599.3446,83.7742 L597.2794,81.7091 L595.3853,79.815 L592.6964,77.1261 L590.5901,75.0198 L589,73.4297 L589,71.7726 L579.1034,73.2727 L569.2069,72.9056 L559.3103,75.2468 L549.4138,72.9639 L539.5172,72.5149 L529.6207,74.0384 L519.7241,71.6515 L509.8276,72.0454 L499.931,75.1602 L490.0345,74.5915 L480.1379,75.3883 L470.2414,72.5716 L460.3448,74.2809 L450.4483,75.0041 L440.5517,72.1699 L430.6552,73.1741 L420.7586,73.7656 L410.8621,75.1677 L400.9655,73.4185 L391.069,74.6632 L381.1724,71.9529 L371.2759,71.6237 L361.3793,74.7727 L351.4828,71.5178 L341.5862,74.7869 L331.6897,73.9807 L321.7931,72.7152 L311.8966,72.4863 L302,73.4297 " fill="#ECECEC" filter="url(#fs9cdc6cgsxuo)" style="stroke: #383838; stroke-width: 1.0;"/><path d="M589,73.4297 L589.4078,73.4297 L588.7339,75.4297 L589.5261,77.4297 L588.5087,79.4297 L589.5488,81.4297 L589,83.4297 L589,83.8602 L591,83.6474 L593,83.4717 L595,84.0756 L597,83.9751 L599,83.4297 L599.1064,83.5361 L597.1686,81.5983 L594.9181,79.3478 L593.4503,77.88 L591.0973,75.527 L589,73.4297 " fill="#ECECEC" style="stroke: #383838; stroke-width: 1.0;"/><text fill="#000000" font-family="sans-serif" font-size="13" lengthAdjust="spacingAndGlyphs" textLength="276" x="308" y="90.4966">get domain object data from some storage</text><text fill="#000000" font-family="sans-serif" font-size="13" lengthAdjust="spacingAndGlyphs" textLength="193" x="308" y="105.6294">and map it to a domain object</text><polygon fill="#383838" points="243.5,139.8281,243.526,139.8932,241.4487,140.4999,239.5239,141.4879,237.5495,142.3518,235.4117,142.8073,233.5,143.8281,233.4904,143.8041,235.4472,144.4961,237.4525,145.3094,239.4916,146.207,241.4144,146.8142,243.5,147.8281,243.6305,147.9586,242.5514,146.8796,241.8534,146.1815,241.2018,145.5299,240.2798,144.6079,239.5,143.8281,239.5161,143.8442,240.2925,143.0206,241.1421,142.2702,241.9564,141.4845,242.838,140.7662,243.5,139.8281" style="stroke: #383838; stroke-width: 1.0;"/><path d="M237.5,143.8281 L237.5,144.1084 L247.3333,143.2757 L257.1667,144.0858 L267,144.361 L276.8333,142.8769 L286.6667,143.7245 L296.5,143.8281 " fill="none" style="stroke: #383838; stroke-width: 1.0;"/><text fill="#000000" font-family="sans-serif" font-size="13" lengthAdjust="spacingAndGlyphs" textLength="41" x="249.5" y="138.7622">create</text><polygon fill="#F8F8F8" filter="url(#fs9cdc6cgsxuo)" points="120.5,122.6953,120.5,122.9055,130.3182,122.281,140.1364,122.8886,149.9545,123.095,159.7727,121.9819,169.5909,122.6176,179.4091,122.2688,189.2273,122.3118,199.0455,122.6272,208.8636,122.0039,218.6818,123.249,228.5,122.6953,228.2899,122.6953,228.4341,128.7547,228.644,134.8141,228.4714,140.8734,228.5227,146.9328,228.5,152.9922,228.5,152.9602,218.6818,153.1707,208.8636,153.2313,199.0455,153.5779,189.2273,153.6632,179.4091,153.6714,169.5909,153.2468,159.7727,153.4558,149.9545,153.6944,140.1364,152.271,130.3182,153.6707,120.5,152.9922,120.4012,152.9922,120.6779,146.9328,120.335,140.8734,120.4772,134.8141,120.7472,128.7547,120.5,122.6953" style="stroke: #383838; stroke-width: 1.5;"/><text fill="#000000" font-family="sans-serif" font-size="14" lengthAdjust="spacingAndGlyphs" textLength="94" x="127.5" y="142.6904">domainobject</text><polygon fill="#383838" points="164.5,185.125,164.526,185.19,166.4487,185.7968,168.5239,186.7848,170.5495,187.6487,172.4117,188.1042,174.5,189.125,174.4904,189.1009,172.4472,189.793,170.4525,190.6063,168.4916,191.5039,166.4144,192.111,164.5,193.125,164.6305,193.2555,165.1514,192.1764,166.0534,191.4784,167.0018,190.8268,167.6798,189.9048,168.5,189.125,168.5161,189.1411,167.6925,188.3175,166.9421,187.5671,166.1564,186.7814,165.438,186.063,164.5,185.125" style="stroke: #383838; stroke-width: 1.0;"/><path d="M51.5,189.125 L51.5,189.4052 L61.4167,188.5726 L71.3333,189.3827 L81.25,189.6579 L91.1667,188.1738 L101.0833,189.0214 L111,188.5563 L120.9167,188.6137 L130.8333,189.0341 L140.75,188.2032 L150.6667,189.8632 L160.5833,188.2846 L170.5,189.125 " fill="none" style="stroke: #383838; stroke-width: 1.0;"/><text fill="#000000" font-family="sans-serif" font-size="13" lengthAdjust="spacingAndGlyphs" textLength="101" x="58.5" y="184.0591">do the business</text><polygon fill="#383838" points="285.5,214.2578,285.526,214.3229,287.4487,214.9296,289.5239,215.9176,291.5495,216.7815,293.4117,217.237,295.5,218.2578,295.4904,218.2338,293.4472,218.9258,291.4525,219.7391,289.4916,220.6367,287.4144,221.2438,285.5,222.2578,285.6305,222.3883,286.1514,221.3093,287.0534,220.6112,288.0018,219.9596,288.6798,219.0376,289.5,218.2578,289.5161,218.2739,288.6925,217.4503,287.9421,216.6999,287.1564,215.9142,286.438,215.1959,285.5,214.2578" style="stroke: #383838; stroke-width: 1.0;"/><path d="M51.5,218.2578 L51.5,218.5381 L61.5,217.7054 L71.5,218.5155 L81.5,218.7907 L91.5,217.3066 L101.5,218.1542 L111.5,217.6892 L121.5,217.7465 L131.5,218.1669 L141.5,217.336 L151.5,218.996 L161.5,217.4174 L171.5,217.9941 L181.5,218.8337 L191.5,218.1434 L201.5,218.3488 L211.5,218.2152 L221.5,218.4958 L231.5,218.5767 L241.5,219.0387 L251.5,219.1526 L261.5,219.1635 L271.5,218.5973 L281.5,218.8759 L291.5,218.2578 " fill="none" style="stroke: #383838; stroke-width: 1.0;"/><text fill="#000000" font-family="sans-serif" font-size="13" lengthAdjust="spacingAndGlyphs" textLength="127" x="58.5" y="213.1919">save(domainobject)</text><!--
@startuml command-execution
skinparam {
  handwritten true
  monochrome true
}
hide footbox
box "domain"
participant command order 10
participant domainobject order 20
end box
box "adaper"
participant repository order 30
end box
command -> repository: byId(12123)
note right
get domain object data from some storage
and map it to a domain object
end note
create domainobject
repository -> domainobject: create
command -> domainobject: do the business
command -> repository: save(domainobject)
@enduml

PlantUML version 1.2018.13(Mon Nov 26 18:11:51 CET 2018)
(GPL source distribution)
Java Runtime: OpenJDK Runtime Environment
JVM: OpenJDK 64-Bit Server VM
Java Version: 13.0.3+3-MTS
Operating System: Linux
OS Version: 5.4.0-52-generic
Default Encoding: UTF-8
Language: en
Country: US
--></g></svg>