<?xml version="1.0" encoding="UTF-8" standalone="no"?><svg xmlns="http://www.w3.org/2000/svg" xmlns:xlink="http://www.w3.org/1999/xlink" contentScriptType="application/ecmascript" contentStyleType="text/css" height="331px" preserveAspectRatio="none" style="width:773px;height:331px;" version="1.1" viewBox="0 0 773 331" width="773px" zoomAndPan="magnify"><defs><filter height="300%" id="f17ugg21qv3y" width="300%" x="-1" y="-1"><feGaussianBlur result="blurOut" stdDeviation="2.0"/><feColorMatrix in="blurOut" result="blurOut2" type="matrix" values="0 0 0 0 0 0 0 0 0 0 0 0 0 0 0 0 0 0 .4 0"/><feOffset dx="4.0" dy="4.0" in="blurOut2" result="blurOut3"/><feBlend in="SourceGraphic" in2="blurOut3" mode="normal"/></filter></defs><g><polygon fill="#DDDDDD" points="4,4,4,4.2102,14.0789,3.5857,24.1579,4.1933,34.2368,4.3997,44.3158,3.2866,54.3947,3.9223,64.4737,3.5735,74.5526,3.6165,84.6316,3.9318,94.7105,3.3086,104.7895,4.5536,114.8684,3.3697,124.9474,3.8022,135.0263,4.4319,145.1053,3.9142,155.1842,4.0682,165.2632,3.9681,175.3421,4.1785,185.4211,4.2391,195.5,4.5857,205.5789,4.6711,215.6579,4.6793,225.7368,4.2546,235.8158,4.4636,245.8947,4.7022,255.9737,3.2788,266.0526,4.6785,276.1316,3.7035,286.2105,4.5338,296.2895,3.505,306.3684,3.9315,316.4474,4.7416,326.5263,3.9513,336.6053,4.1053,346.6842,4.3386,356.7632,4.4162,366.8421,3.9961,376.9211,4.2872,387,4,386.4276,4,387.2844,13.9751,387.5482,23.9501,387.4445,33.9252,387.613,43.9002,386.5169,53.8753,386.3478,63.8503,386.3786,73.8254,386.9411,83.8004,386.8035,93.7755,387.6814,103.7505,386.8253,113.7256,386.6569,123.7006,387.2283,133.6757,386.3332,143.6507,386.4809,153.6258,387.649,163.6008,387.4357,173.5759,387.7345,183.5509,386.6782,193.526,387.3192,203.501,387.5904,213.4761,386.5276,223.4511,386.9041,233.4262,387.126,243.4012,387.6518,253.3763,386.9958,263.3513,387.4626,273.3264,386.4462,283.3014,386.3227,293.2765,387.5036,303.2515,387,313.2266,387,312.5096,376.9211,313.7355,366.8421,313.4332,356.7632,312.9586,346.6842,312.8728,336.6053,313.6853,326.5263,312.9272,316.4474,313.8184,306.3684,312.6738,296.2895,313.844,286.2105,313.7109,276.1316,313.4715,266.0526,313.2738,255.9737,313.9532,245.8947,313.8401,235.8158,313.3958,225.7368,313.4948,215.6579,313.0963,205.5789,313.943,195.5,313.3814,185.4211,313.3991,175.3421,312.6182,165.2632,312.8213,155.1842,313.7573,145.1053,313.6563,135.0263,313.1836,124.9474,312.9044,114.8684,313.0076,104.7895,312.5404,94.7105,313.6413,84.6316,313.9661,74.5526,313.753,64.4737,313.9215,54.3947,313.0898,44.3158,313.3138,34.2368,312.839,24.1579,313.5106,14.0789,313.4733,4,313.2266,4.5524,313.2266,3.7703,303.2515,3.8656,293.2765,4.4435,283.3014,4.5673,273.3264,3.4875,263.3513,3.8061,253.3763,4.1493,243.4012,3.3892,233.4262,4.3534,223.4511,4.258,213.4761,3.8992,203.501,4.1422,193.526,4.7287,183.5509,3.6871,173.5759,4.315,163.6008,4.2856,153.6258,4.1158,143.6507,4.1409,133.6757,4.1135,123.7006,3.3758,113.7256,3.5992,103.7505,3.5385,93.7755,4.0638,83.8004,4.0881,73.8254,4.1617,63.8503,3.709,53.8753,3.9325,43.9002,3.8798,33.9252,4.5769,23.9501,4.4266,13.9751,4,4" style="stroke: #383838; stroke-width: 1.0;"/><text fill="#000000" font-family="sans-serif" font-size="13" font-weight="bold" lengthAdjust="spacingAndGlyphs" textLength="55" x="168" y="16.0669">domain</text><polygon fill="#DDDDDD" points="423.5,4,423.5,4.2102,433.3571,3.5857,443.2143,4.1933,453.0714,4.3997,462.9286,3.2866,472.7857,3.9223,482.6429,3.5735,492.5,3.6165,502.3571,3.9318,512.2143,3.3086,522.0714,4.5536,531.9286,3.3697,541.7857,3.8022,551.6429,4.4319,561.5,4,561.4142,4,561.5682,13.9751,561.4681,23.9501,561.6785,33.9252,561.7391,43.9002,562.0857,53.8753,562.1711,63.8503,562.1793,73.8254,561.7546,83.8004,561.9636,93.7755,562.2022,103.7505,560.7788,113.7256,562.1785,123.7006,561.2035,133.6757,562.0338,143.6507,561.005,153.6258,561.4315,163.6008,562.2416,173.5759,561.4513,183.5509,561.6053,193.526,561.8386,203.501,561.9162,213.4761,561.4961,223.4511,561.7872,233.4262,560.9276,243.4012,561.7844,253.3763,562.0482,263.3513,561.9445,273.3264,562.113,283.3014,561.0169,293.2765,560.8478,303.2515,561.5,313.2266,561.5,312.6052,551.6429,313.1677,541.7857,313.03,531.9286,313.908,522.0714,313.0519,512.2143,312.8835,502.3571,313.4548,492.5,312.5597,482.6429,312.7074,472.7857,313.8755,462.9286,313.6622,453.0714,313.9611,443.2143,312.9048,433.3571,313.5458,423.5,313.2266,424.0904,313.2266,423.0276,303.2515,423.4041,293.2765,423.626,283.3014,424.1518,273.3264,423.4958,263.3513,423.9626,253.3763,422.9462,243.4012,422.8227,233.4262,424.0036,223.4511,422.7831,213.4761,424.009,203.501,423.7066,193.526,423.2321,183.5509,423.1462,173.5759,423.9588,163.6008,423.2007,153.6258,424.0919,143.6507,422.9473,133.6757,424.1174,123.7006,423.9843,113.7256,423.745,103.7505,423.5472,93.7755,424.2266,83.8004,424.1136,73.8254,423.6693,63.8503,423.7682,53.8753,423.3697,43.9002,424.2165,33.9252,423.6549,23.9501,423.6726,13.9751,423.5,4" style="stroke: #383838; stroke-width: 1.0;"/><text fill="#000000" font-family="sans-serif" font-size="13" font-weight="bold" lengthAdjust="spacingAndGlyphs" textLength="67" x="459" y="16.0669">adapters</text><path d="M51,86.2969 L51.2802,86.2969 L50.4476,96.4243 L51.2577,106.5516 L51.5329,116.679 L50.0488,126.8064 L50.8964,136.9338 L50.4313,147.0611 L50.4887,157.1885 L50.9091,167.3159 L50.0782,177.4433 L51.7382,187.5707 L50.1596,197.698 L50.7363,207.8254 L51.5759,217.9528 L50.8856,228.0802 L51.091,238.2075 L50.9574,248.3349 L51.238,258.4623 L51.3188,268.5897 L51.7809,278.7171 L51.8947,288.8444 L51.9057,298.9718 L51.3395,309.0992 L51,319.2266 " fill="none" style="stroke: #383838; stroke-width: 1.0; stroke-dasharray: 5.0,5.0;"/><path d="M176.5,86.2969 L176.7802,86.2969 L175.9476,96.4243 L176.7577,106.5516 L177.0329,116.679 L175.5488,126.8064 L176.3964,136.9338 L175.9313,147.0611 L175.9887,157.1885 L176.4091,167.3159 L175.5782,177.4433 L177.2382,187.5707 L175.6596,197.698 L176.2363,207.8254 L177.0759,217.9528 L176.3856,228.0802 L176.591,238.2075 L176.4574,248.3349 L176.738,258.4623 L176.8188,268.5897 L177.2809,278.7171 L177.3947,288.8444 L177.4057,298.9718 L176.8395,309.0992 L176.5,319.2266 " fill="none" style="stroke: #383838; stroke-width: 1.0; stroke-dasharray: 5.0,5.0;"/><path d="M334,86.2969 L334.2802,86.2969 L333.4476,96.4243 L334.2577,106.5516 L334.5329,116.679 L333.0488,126.8064 L333.8964,136.9338 L333.4313,147.0611 L333.4887,157.1885 L333.9091,167.3159 L333.0782,177.4433 L334.7382,187.5707 L333.1596,197.698 L333.7363,207.8254 L334.5759,217.9528 L333.8856,228.0802 L334.091,238.2075 L333.9574,248.3349 L334.238,258.4623 L334.3188,268.5897 L334.7809,278.7171 L334.8947,288.8444 L334.9057,298.9718 L334.3395,309.0992 L334,319.2266 " fill="none" style="stroke: #383838; stroke-width: 1.0; stroke-dasharray: 5.0,5.0;"/><path d="M492.5,86.2969 L492.7802,86.2969 L491.9476,96.4243 L492.7577,106.5516 L493.0329,116.679 L491.5488,126.8064 L492.3964,136.9338 L491.9313,147.0611 L491.9887,157.1885 L492.4091,167.3159 L491.5782,177.4433 L493.2382,187.5707 L491.6596,197.698 L492.2363,207.8254 L493.0759,217.9528 L492.3856,228.0802 L492.591,238.2075 L492.4574,248.3349 L492.738,258.4623 L492.8188,268.5897 L493.2809,278.7171 L493.3947,288.8444 L493.4057,298.9718 L492.8395,309.0992 L492.5,319.2266 " fill="none" style="stroke: #383838; stroke-width: 1.0; stroke-dasharray: 5.0,5.0;"/><path d="M610.5,86.2969 L610.7802,86.2969 L609.9476,96.4243 L610.7577,106.5516 L611.0329,116.679 L609.5488,126.8064 L610.3964,136.9338 L609.9313,147.0611 L609.9887,157.1885 L610.4091,167.3159 L609.5782,177.4433 L611.2382,187.5707 L609.6596,197.698 L610.2363,207.8254 L611.0759,217.9528 L610.3856,228.0802 L610.591,238.2075 L610.4574,248.3349 L610.738,258.4623 L610.8188,268.5897 L611.2809,278.7171 L611.3947,288.8444 L611.4057,298.9718 L610.8395,309.0992 L610.5,319.2266 " fill="none" style="stroke: #383838; stroke-width: 1.0; stroke-dasharray: 5.0,5.0;"/><polygon fill="#F8F8F8" filter="url(#f17ugg21qv3y)" points="8,51,8,51.2102,18.375,50.5857,28.75,51.1933,39.125,51.3997,49.5,50.2866,59.875,50.9223,70.25,50.5735,80.625,50.6165,91,51,90.9773,51,90.7695,57.0594,91.1845,63.1188,90.7899,69.1781,90.9341,75.2375,91,81.2969,91,81.7288,80.625,81.2111,70.25,81.3651,59.875,81.2649,49.5,81.4754,39.125,81.536,28.75,81.8826,18.375,81.9679,8,81.2969,8.2264,81.2969,8.0849,75.2375,8.1545,69.1781,8.2341,63.1188,7.7596,57.0594,8,51" style="stroke: #383838; stroke-width: 1.5;"/><text fill="#000000" font-family="sans-serif" font-size="14" lengthAdjust="spacingAndGlyphs" textLength="69" x="15" y="70.9951">command</text><polygon fill="#F8F8F8" filter="url(#f17ugg21qv3y)" points="120.5,51,120.5,51.2102,130.3182,50.5857,140.1364,51.1933,149.9545,51.3997,159.7727,50.2866,169.5909,50.9223,179.4091,50.5735,189.2273,50.6165,199.0455,50.9318,208.8636,50.3086,218.6818,51.5536,228.5,51,228.2899,51,228.4341,57.0594,228.644,63.1188,228.4714,69.1781,228.5227,75.2375,228.5,81.2969,228.5,81.2649,218.6818,81.4754,208.8636,81.536,199.0455,81.8826,189.2273,81.9679,179.4091,81.9761,169.5909,81.5515,159.7727,81.7605,149.9545,81.9991,140.1364,80.5757,130.3182,81.9754,120.5,81.2969,120.4012,81.2969,120.6779,75.2375,120.335,69.1781,120.4772,63.1188,120.7472,57.0594,120.5,51" style="stroke: #383838; stroke-width: 1.5;"/><text fill="#000000" font-family="sans-serif" font-size="14" lengthAdjust="spacingAndGlyphs" textLength="94" x="127.5" y="70.9951">domainobject</text><polygon fill="#F8F8F8" filter="url(#f17ugg21qv3y)" points="286,51,286,51.2102,296.3333,50.5857,306.6667,51.1933,317,51.3997,327.3333,50.2866,337.6667,50.9223,348,50.5735,358.3333,50.6165,368.6667,50.9318,379,51,378.7695,51,379.1845,57.0594,378.7899,63.1188,378.9341,69.1781,379.144,75.2375,379,81.2969,379,81.2111,368.6667,81.3651,358.3333,81.2649,348,81.4754,337.6667,81.536,327.3333,81.8826,317,81.9679,306.6667,81.9761,296.3333,81.5515,286,81.2969,286.1545,81.2969,286.2341,75.2375,285.7596,69.1781,286.2262,63.1188,285.9012,57.0594,286,51" style="stroke: #383838; stroke-width: 1.5;"/><text fill="#000000" font-family="sans-serif" font-size="14" lengthAdjust="spacingAndGlyphs" textLength="79" x="293" y="70.9951">messenger</text><polygon fill="#F8F8F8" filter="url(#f17ugg21qv3y)" points="427.5,51,427.5,51.2102,437.1923,50.5857,446.8846,51.1933,456.5769,51.3997,466.2692,50.2866,475.9615,50.9223,485.6538,50.5735,495.3462,50.6165,505.0385,50.9318,514.7308,50.3086,524.4231,51.5536,534.1154,50.3697,543.8077,50.8022,553.5,51,553.644,51,553.4714,57.0594,553.5227,63.1188,553.4894,69.1781,553.5595,75.2375,553.5,81.2969,553.5,81.536,543.8077,81.8826,534.1154,81.9679,524.4231,81.9761,514.7308,81.5515,505.0385,81.7605,495.3462,81.9991,485.6538,80.5757,475.9615,81.9754,466.2692,81.0004,456.5769,81.8307,446.8846,80.8019,437.1923,81.2284,427.5,81.2969,427.7472,81.2969,427.4838,75.2375,427.5351,69.1781,427.6129,63.1188,427.6387,57.0594,427.5,51" style="stroke: #383838; stroke-width: 1.5;"/><text fill="#000000" font-family="sans-serif" font-size="14" lengthAdjust="spacingAndGlyphs" textLength="112" x="434.5" y="70.9951">messageengine</text><text fill="#000000" font-family="sans-serif" font-size="14" lengthAdjust="spacingAndGlyphs" textLength="78" x="568.5" y="82.9951">smtpserver</text><polygon fill="#F8F8F8" filter="url(#f17ugg21qv3y)" points="618.5442,14.9459,617.3715,16.5482,615.9845,18.8951,614.0008,20.4767,611.9163,21.3415,610.2542,21.4166,608.118,20.3349,606.1023,19.6283,604.5724,18.1936,603.7699,16.5511,603.2939,15.2433,602.8277,13.5351,602.0709,12.0651,602.6525,10.6298,603.162,9.0576,605.074,7.8142,606.4192,6.2008,608.0843,5.665,610.0637,5.2037,612.6021,5.4778,613.9924,6.1335,615.6089,6.4307,617.5743,8.4443,618.2595,10.5701,618.5571,12.0206,618.22,14.4108" style="stroke: #383838; stroke-width: 2.0;"/><path d="M610.5,21 L610.6868,21 L610.1317,26.4 L610.6718,31.8 L610.8553,37.2 L609.8659,42.6 L610.5,48 M597.5,29 L597.5,28.9309 L602.7,28.6209 L607.9,28.6591 L613.1,28.9394 L618.3,28.3854 L623.5,29 M610.5,48 L610.8719,48.3223 L607.4766,50.6331 L605.1672,53.8849 L602.9901,57.2515 L600.0424,59.9501 L597.5,63 M610.5,48 L610.5458,48.0397 L613.0785,50.9814 L615.8199,54.1039 L618.4606,57.1392 L621.2934,60.341 L623.5,63 " fill="none" filter="url(#f17ugg21qv3y)" style="stroke: #383838; stroke-width: 2.0;"/><polygon fill="#383838" points="164.5,113.4297,164.526,113.4947,166.4487,114.1015,168.5239,115.0895,170.5495,115.9534,172.4117,116.4089,174.5,117.4297,174.4904,117.4056,172.4472,118.0977,170.4525,118.911,168.4916,119.8086,166.4144,120.4157,164.5,121.4297,164.6305,121.5602,165.1514,120.4811,166.0534,119.7831,167.0018,119.1315,167.6798,118.2095,168.5,117.4297,168.5161,117.4458,167.6925,116.6222,166.9421,115.8718,166.1564,115.0861,165.438,114.3677,164.5,113.4297" style="stroke: #383838; stroke-width: 1.0;"/><path d="M51.5,117.4297 L51.5,117.7099 L61.4167,116.8773 L71.3333,117.6874 L81.25,117.9626 L91.1667,116.4785 L101.0833,117.3261 L111,116.861 L120.9167,116.9184 L130.8333,117.3388 L140.75,116.5079 L150.6667,118.1679 L160.5833,116.5893 L170.5,117.4297 " fill="none" style="stroke: #383838; stroke-width: 1.0;"/><text fill="#000000" font-family="sans-serif" font-size="13" lengthAdjust="spacingAndGlyphs" textLength="101" x="58.5" y="112.3638">do the business</text><polygon fill="#383838" points="322.5,142.5625,322.526,142.6275,324.4487,143.2343,326.5239,144.2223,328.5495,145.0862,330.4117,145.5417,332.5,146.5625,332.4904,146.5384,330.4472,147.2305,328.4525,148.0438,326.4916,148.9414,324.4144,149.5485,322.5,150.5625,322.6305,150.693,323.1514,149.6139,324.0534,148.9159,325.0018,148.2643,325.6798,147.3423,326.5,146.5625,326.5161,146.5786,325.6925,145.755,324.9421,145.0046,324.1564,144.2189,323.438,143.5005,322.5,142.5625" style="stroke: #383838; stroke-width: 1.0;"/><path d="M176.5,146.5625 L176.5,146.8427 L186.6333,146.0101 L196.7667,146.8202 L206.9,147.0954 L217.0333,145.6113 L227.1667,146.4589 L237.3,145.9938 L247.4333,146.0512 L257.5667,146.4716 L267.7,145.6407 L277.8333,147.3007 L287.9667,145.7221 L298.1,146.2988 L308.2333,147.1384 L318.3667,146.4481 L328.5,146.5625 " fill="none" style="stroke: #383838; stroke-width: 1.0;"/><text fill="#000000" font-family="sans-serif" font-size="13" lengthAdjust="spacingAndGlyphs" textLength="134" x="183.5" y="141.4966">send some message</text><path d="M334.5,175.6953 L334.5,175.7887 L342.9,175.5112 L351.3,175.7812 L359.7,175.8729 L368.1,175.3782 L376.5,175.6953 " fill="none" style="stroke: #383838; stroke-width: 1.0;"/><path d="M376.5,175.6953 L376.5934,175.6953 L376.3159,178.2953 L376.5859,180.8953 L376.6776,183.4953 L376.1829,186.0953 L376.5,188.6953 " fill="none" style="stroke: #383838; stroke-width: 1.0;"/><path d="M335.5,188.6953 L335.5,188.7887 L343.7,188.5112 L351.9,188.7812 L360.1,188.8729 L368.3,188.3782 L376.5,188.6953 " fill="none" style="stroke: #383838; stroke-width: 1.0;"/><polygon fill="#383838" points="345.5,184.6953,345.526,184.7604,343.4487,185.3671,341.5239,186.3551,339.5495,187.219,337.4117,187.6745,335.5,188.6953,335.4904,188.6713,337.4472,189.3633,339.4525,190.1766,341.4916,191.0742,343.4144,191.6813,345.5,192.6953,345.6305,192.8258,344.5514,191.7468,343.8534,191.0487,343.2018,190.3971,342.2798,189.4751,341.5,188.6953,341.5161,188.7114,342.2925,187.8878,343.1421,187.1374,343.9564,186.3517,344.838,185.6334,345.5,184.6953" style="stroke: #383838; stroke-width: 1.0;"/><text fill="#000000" font-family="sans-serif" font-size="13" lengthAdjust="spacingAndGlyphs" textLength="144" x="341.5" y="170.6294">create some message</text><polygon fill="#383838" points="480.5,213.8281,480.526,213.8932,482.4487,214.4999,484.5239,215.4879,486.5495,216.3518,488.4117,216.8073,490.5,217.8281,490.4904,217.8041,488.4472,218.4961,486.4525,219.3094,484.4916,220.207,482.4144,220.8142,480.5,221.8281,480.6305,221.9586,481.1514,220.8796,482.0534,220.1815,483.0018,219.5299,483.6798,218.6079,484.5,217.8281,484.5161,217.8442,483.6925,217.0206,482.9421,216.2702,482.1564,215.4845,481.438,214.7662,480.5,213.8281" style="stroke: #383838; stroke-width: 1.0;"/><path d="M51.5,217.8281 L51.5,218.1084 L61.3864,217.2757 L71.2727,218.0858 L81.1591,218.361 L91.0455,216.8769 L100.9318,217.7245 L110.8182,217.2595 L120.7045,217.3168 L130.5909,217.7372 L140.4773,216.9063 L150.3636,218.5663 L160.25,216.9878 L170.1364,217.5644 L180.0227,218.4041 L189.9091,217.7138 L199.7955,217.9191 L209.6818,217.7855 L219.5682,218.0662 L229.4545,218.147 L239.3409,218.609 L249.2273,218.7229 L259.1136,218.7338 L269,218.1676 L278.8864,218.4462 L288.7727,218.7644 L298.6591,216.8665 L308.5455,218.7328 L318.4318,217.4328 L328.3182,218.5399 L338.2045,217.1681 L348.0909,217.7368 L357.9773,218.8169 L367.8636,217.7631 L377.75,217.9685 L387.6364,218.2796 L397.5227,218.3831 L407.4091,217.8229 L417.2955,218.2111 L427.1818,217.0649 L437.0682,218.2073 L446.9545,218.5591 L456.8409,218.4208 L466.7273,218.6455 L476.6136,217.184 L486.5,217.8281 " fill="none" style="stroke: #383838; stroke-width: 1.0;"/><text fill="#000000" font-family="sans-serif" font-size="13" lengthAdjust="spacingAndGlyphs" textLength="131" x="58.5" y="212.7622">commit(messenger)</text><polygon fill="#383838" points="345.5,255.5273,345.526,255.5924,343.4487,256.1991,341.5239,257.1872,339.5495,258.051,337.4117,258.5066,335.5,259.5273,335.4904,259.5033,337.4472,260.1953,339.4525,261.0087,341.4916,261.9062,343.4144,262.5134,345.5,263.5273,345.6305,263.6578,344.5514,262.5788,343.8534,261.8807,343.2018,261.2292,342.2798,260.3071,341.5,259.5273,341.5161,259.5434,342.2925,258.7198,343.1421,257.9694,343.9564,257.1837,344.838,256.4654,345.5,255.5273" style="stroke: #383838; stroke-width: 1.0;"/><path d="M339.5,259.5273 L339.5,259.8076 L349.6333,258.9749 L359.7667,259.7851 L369.9,260.0602 L380.0333,258.5762 L390.1667,259.4237 L400.3,258.9587 L410.4333,259.016 L420.5667,259.4365 L430.7,258.6055 L440.8333,260.2655 L450.9667,258.687 L461.1,259.2637 L471.2333,260.1033 L481.3667,259.413 L491.5,259.5273 " fill="none" style="stroke: #383838; stroke-width: 1.0;"/><text fill="#000000" font-family="sans-serif" font-size="13" lengthAdjust="spacingAndGlyphs" textLength="91" x="351.5" y="254.4614">get messages</text><path d="M497,230.8281 L497.1868,230.8281 L496.6317,238.8281 L497.1718,246.8281 L497.3553,254.8281 L496.3659,262.8281 L497,270.8281 L497,270.6209 L507.1538,269.6908 L517.3077,269.8055 L527.4615,270.6464 L537.6154,268.9845 L547.7692,272.3045 L557.9231,269.1474 L568.0769,270.3007 L578.2308,271.98 L588.3846,270.5994 L598.5385,271.0101 L608.6923,270.7429 L618.8462,271.3042 L629,271.4658 L639.1538,272.39 L649.3077,272.6176 L659.4615,272.6395 L669.6154,271.5071 L679.7692,272.0644 L689.9231,272.7007 L700.0769,268.905 L710.2308,272.6375 L720.3846,270.0374 L730.5385,272.2516 L740.6923,269.5081 L750.8462,270.6455 L761,270.8281 L761.6592,270.8281 L760.9567,264.8281 L761.0936,258.8281 L761.301,252.8281 L761.37,246.8281 L761,240.8281 L760.9975,240.8257 L759.1805,239.0086 L756.6402,236.4683 L755.1787,235.0069 L753.3446,233.1727 L751,230.8281 L751,232.0135 L740.84,232.4629 L730.68,229.5399 L720.52,229.089 L710.36,229.1711 L700.2,230.6711 L690.04,230.304 L679.88,232.6452 L669.72,230.3623 L659.56,229.9133 L649.4,231.4368 L639.24,229.0499 L629.08,229.4438 L618.92,232.5587 L608.76,231.9899 L598.6,232.7868 L588.44,229.97 L578.28,231.6793 L568.12,232.4026 L557.96,229.5684 L547.8,230.5725 L537.64,231.1641 L527.48,232.5662 L517.32,230.8169 L507.16,232.0616 L497,230.8281 " fill="#ECECEC" filter="url(#f17ugg21qv3y)" style="stroke: #383838; stroke-width: 1.0;"/><path d="M751,230.8281 L750.5077,230.8281 L750.398,232.8281 L751.4477,234.8281 L750.3627,236.8281 L751.4524,238.8281 L751,240.8281 L751,241.0118 L753,240.59 L755,240.5137 L757,241.2359 L759,240.5621 L761,240.8281 L761.372,241.2001 L758.6526,238.4807 L757.3881,237.2162 L755.3044,235.1325 L753.154,232.9821 L751,230.8281 " fill="#ECECEC" style="stroke: #383838; stroke-width: 1.0;"/><text fill="#000000" font-family="sans-serif" font-size="13" lengthAdjust="spacingAndGlyphs" textLength="243" x="503" y="247.895">map all messages to email messages</text><text fill="#000000" font-family="sans-serif" font-size="13" lengthAdjust="spacingAndGlyphs" textLength="129" x="503" y="263.0278">send to smtp server</text><polygon fill="#383838" points="598.5,297.2266,598.526,297.2916,600.4487,297.8983,602.5239,298.8864,604.5495,299.7503,606.4117,300.2058,608.5,301.2266,608.4904,301.2025,606.4472,301.8946,604.4525,302.7079,602.4916,303.6055,600.4144,304.2126,598.5,305.2266,598.6305,305.3571,599.1514,304.278,600.0534,303.5799,601.0018,302.9284,601.6798,302.0063,602.5,301.2266,602.5161,301.2426,601.6925,300.419,600.9421,299.6686,600.1564,298.8829,599.438,298.1646,598.5,297.2266" style="stroke: #383838; stroke-width: 1.0;"/><path d="M492.5,301.2266 L492.5,301.5068 L502.6818,300.6741 L512.8636,301.4843 L523.0455,301.7595 L533.2273,300.2754 L543.4091,301.1229 L553.5909,300.6579 L563.7727,300.7152 L573.9545,301.1357 L584.1364,300.3047 L594.3182,301.9648 L604.5,301.2266 " fill="none" style="stroke: #383838; stroke-width: 1.0;"/><text fill="#000000" font-family="sans-serif" font-size="13" lengthAdjust="spacingAndGlyphs" textLength="94" x="499.5" y="296.1606">send message</text><!--
@startuml command-execution-with-message
skinparam {
  handwritten true
  monochrome true
}
hide footbox
box "adapters"
participant messageengine order 30
end box
box "domain"
participant command order 10
participant domainobject order 20
participant messenger order 20
end box
actor smtpserver order 40
command -> domainobject: do the business
domainobject -> messenger: send some message
messenger -> messenger: create some message  
command -> messageengine: commit(messenger)
messageengine -> messenger: get messages
note right
map all messages to email messages
send to smtp server
end note
messageengine -> smtpserver: send message
@enduml

PlantUML version 1.2018.13(Mon Nov 26 18:11:51 CET 2018)
(GPL source distribution)
Java Runtime: OpenJDK Runtime Environment
JVM: OpenJDK 64-Bit Server VM
Java Version: 13.0.3+3-MTS
Operating System: Linux
OS Version: 5.4.0-52-generic
Default Encoding: UTF-8
Language: en
Country: US
--></g></svg>