<?xml version="1.0" encoding="UTF-8" standalone="no"?><svg xmlns="http://www.w3.org/2000/svg" xmlns:xlink="http://www.w3.org/1999/xlink" contentScriptType="application/ecmascript" contentStyleType="text/css" height="176px" preserveAspectRatio="none" style="width:382px;height:176px;" version="1.1" viewBox="0 0 382 176" width="382px" zoomAndPan="magnify"><defs><filter height="300%" id="f8u52tvf0f6sd" width="300%" x="-1" y="-1"><feGaussianBlur result="blurOut" stdDeviation="2.0"/><feColorMatrix in="blurOut" result="blurOut2" type="matrix" values="0 0 0 0 0 0 0 0 0 0 0 0 0 0 0 0 0 0 .4 0"/><feOffset dx="4.0" dy="4.0" in="blurOut2" result="blurOut3"/><feBlend in="SourceGraphic" in2="blurOut3" mode="normal"/></filter></defs><g><polygon fill="#DDDDDD" points="100.5,4,100.5,4.2102,110.5185,3.5857,120.537,4.1933,130.5556,4.3997,140.5741,3.2866,150.5926,3.9223,160.6111,3.5735,170.6296,3.6165,180.6481,3.9318,190.6667,3.3086,200.6852,4.5536,210.7037,3.3697,220.7222,3.8022,230.7407,4.4319,240.7593,3.9142,250.7778,4.0682,260.7963,3.9681,270.8148,4.1785,280.8333,4.2391,290.8519,4.5857,300.8704,4.6711,310.8889,4.6793,320.9074,4.2546,330.9259,4.4636,340.9444,4.7022,350.963,3.2788,360.9815,4.6785,371,4,370.7035,4,371.5338,14.3042,370.505,24.6083,370.9315,34.9125,371.7416,45.2167,370.9513,55.5208,371.1053,65.825,371.3386,76.1292,371.4162,86.4333,370.9961,96.7375,371.2872,107.0417,370.4276,117.3458,371.2844,127.65,371.5482,137.9542,371.4445,148.2583,371,158.5625,371,159.1755,360.9815,158.0794,350.963,157.9103,340.9444,157.9411,330.9259,158.5036,320.9074,158.366,310.8889,159.2439,300.8704,158.3878,290.8519,158.2194,280.8333,158.7908,270.8148,157.8957,260.7963,158.0434,250.7778,159.2115,240.7593,158.9982,230.7407,159.297,220.7222,158.2407,210.7037,158.8817,200.6852,159.1529,190.6667,158.0901,180.6481,158.4666,170.6296,158.6885,160.6111,159.2143,150.5926,158.5583,140.5741,159.0251,130.5556,158.0087,120.537,157.8852,110.5185,159.0661,100.5,158.5625,99.7831,158.5625,101.009,148.2583,100.7066,137.9542,100.2321,127.65,100.1462,117.3458,100.9588,107.0417,100.2007,96.7375,101.0919,86.4333,99.9473,76.1292,101.1174,65.825,100.9843,55.5208,100.745,45.2167,100.5472,34.9125,101.2266,24.6083,101.1136,14.3042,100.5,4" style="stroke: #383838; stroke-width: 1.0;"/><text fill="#000000" font-family="sans-serif" font-size="13" font-weight="bold" lengthAdjust="spacingAndGlyphs" textLength="55" x="208.25" y="16.0669">domain</text><path d="M28,86.2969 L28.2802,86.2969 L27.4476,96.0801 L28.2577,105.8633 L28.5329,115.6465 L27.0488,125.4297 L27.8964,135.2129 L27.4313,144.9961 L27.4887,154.7793 L28,164.5625 " fill="none" style="stroke: #383838; stroke-width: 1.0; stroke-dasharray: 5.0,5.0;"/><path d="M160.5,86.2969 L160.7802,86.2969 L159.9476,96.0801 L160.7577,105.8633 L161.0329,115.6465 L159.5488,125.4297 L160.3964,135.2129 L159.9313,144.9961 L159.9887,154.7793 L160.5,164.5625 " fill="none" style="stroke: #383838; stroke-width: 1.0; stroke-dasharray: 5.0,5.0;"/><path d="M318,86.2969 L318.2802,86.2969 L317.4476,96.0801 L318.2577,105.8633 L318.5329,115.6465 L317.0488,125.4297 L317.8964,135.2129 L317.4313,144.9961 L317.4887,154.7793 L318,164.5625 " fill="none" style="stroke: #383838; stroke-width: 1.0; stroke-dasharray: 5.0,5.0;"/><text fill="#000000" font-family="sans-serif" font-size="14" lengthAdjust="spacingAndGlyphs" textLength="35" x="8" y="82.9951">actor</text><polygon fill="#F8F8F8" filter="url(#f8u52tvf0f6sd)" points="36.5442,14.9459,35.3715,16.5482,33.9845,18.8951,32.0008,20.4767,29.9163,21.3415,28.2542,21.4166,26.118,20.3349,24.1023,19.6283,22.5724,18.1936,21.7699,16.5511,21.2939,15.2433,20.8277,13.5351,20.0709,12.0651,20.6525,10.6298,21.162,9.0576,23.074,7.8142,24.4192,6.2008,26.0843,5.665,28.0637,5.2037,30.6021,5.4778,31.9924,6.1335,33.6089,6.4307,35.5743,8.4443,36.2595,10.5701,36.5571,12.0206,36.22,14.4108" style="stroke: #383838; stroke-width: 2.0;"/><path d="M28.5,21 L28.6868,21 L28.1317,26.4 L28.6718,31.8 L28.8553,37.2 L27.8659,42.6 L28.5,48 M15.5,29 L15.5,28.9309 L20.7,28.6209 L25.9,28.6591 L31.1,28.9394 L36.3,28.3854 L41.5,29 M28.5,48 L28.8719,48.3223 L25.4766,50.6331 L23.1672,53.8849 L20.9901,57.2515 L18.0424,59.9501 L15.5,63 M28.5,48 L28.5458,48.0397 L31.0785,50.9814 L33.8199,54.1039 L36.4606,57.1392 L39.2934,60.341 L41.5,63 " fill="none" filter="url(#f8u52tvf0f6sd)" style="stroke: #383838; stroke-width: 2.0;"/><polygon fill="#F8F8F8" filter="url(#f8u52tvf0f6sd)" points="104.5,51,104.5,51.2102,114.3182,50.5857,124.1364,51.1933,133.9545,51.3997,143.7727,50.2866,153.5909,50.9223,163.4091,50.5735,173.2273,50.6165,183.0455,50.9318,192.8636,50.3086,202.6818,51.5536,212.5,51,212.2899,51,212.4341,57.0594,212.644,63.1188,212.4714,69.1781,212.5227,75.2375,212.5,81.2969,212.5,81.2649,202.6818,81.4754,192.8636,81.536,183.0455,81.8826,173.2273,81.9679,163.4091,81.9761,153.5909,81.5515,143.7727,81.7605,133.9545,81.9991,124.1364,80.5757,114.3182,81.9754,104.5,81.2969,104.4012,81.2969,104.6779,75.2375,104.335,69.1781,104.4772,63.1188,104.7472,57.0594,104.5,51" style="stroke: #383838; stroke-width: 1.5;"/><text fill="#000000" font-family="sans-serif" font-size="14" lengthAdjust="spacingAndGlyphs" textLength="94" x="111.5" y="70.9951">domainobject</text><polygon fill="#F8F8F8" filter="url(#f8u52tvf0f6sd)" points="270,51,270,51.2102,280.3333,50.5857,290.6667,51.1933,301,51.3997,311.3333,50.2866,321.6667,50.9223,332,50.5735,342.3333,50.6165,352.6667,50.9318,363,51,362.7695,51,363.1845,57.0594,362.7899,63.1188,362.9341,69.1781,363.144,75.2375,363,81.2969,363,81.2111,352.6667,81.3651,342.3333,81.2649,332,81.4754,321.6667,81.536,311.3333,81.8826,301,81.9679,290.6667,81.9761,280.3333,81.5515,270,81.2969,270.1545,81.2969,270.2341,75.2375,269.7596,69.1781,270.2262,63.1188,269.9012,57.0594,270,51" style="stroke: #383838; stroke-width: 1.5;"/><text fill="#000000" font-family="sans-serif" font-size="14" lengthAdjust="spacingAndGlyphs" textLength="79" x="277" y="70.9951">messenger</text><polygon fill="#383838" points="148.5,113.4297,148.526,113.4947,150.4487,114.1015,152.5239,115.0895,154.5495,115.9534,156.4117,116.4089,158.5,117.4297,158.4904,117.4056,156.4472,118.0977,154.4525,118.911,152.4916,119.8086,150.4144,120.4157,148.5,121.4297,148.6305,121.5602,149.1514,120.4811,150.0534,119.7831,151.0018,119.1315,151.6798,118.2095,152.5,117.4297,152.5161,117.4458,151.6925,116.6222,150.9421,115.8718,150.1564,115.0861,149.438,114.3677,148.5,113.4297" style="stroke: #383838; stroke-width: 1.0;"/><path d="M28.5,117.4297 L28.5,117.7099 L38.1923,116.8773 L47.8846,117.6874 L57.5769,117.9626 L67.2692,116.4785 L76.9615,117.3261 L86.6538,116.861 L96.3462,116.9184 L106.0385,117.3388 L115.7308,116.5079 L125.4231,118.1679 L135.1154,116.5893 L144.8077,117.166 L154.5,117.4297 " fill="none" style="stroke: #383838; stroke-width: 1.0;"/><text fill="#000000" font-family="sans-serif" font-size="13" lengthAdjust="spacingAndGlyphs" textLength="108" x="35.5" y="112.3638">do your business</text><polygon fill="#383838" points="306.5,142.5625,306.526,142.6275,308.4487,143.2343,310.5239,144.2223,312.5495,145.0862,314.4117,145.5417,316.5,146.5625,316.4904,146.5384,314.4472,147.2305,312.4525,148.0438,310.4916,148.9414,308.4144,149.5485,306.5,150.5625,306.6305,150.693,307.1514,149.6139,308.0534,148.9159,309.0018,148.2643,309.6798,147.3423,310.5,146.5625,310.5161,146.5786,309.6925,145.755,308.9421,145.0046,308.1564,144.2189,307.438,143.5005,306.5,142.5625" style="stroke: #383838; stroke-width: 1.0;"/><path d="M160.5,146.5625 L160.5,146.8427 L170.6333,146.0101 L180.7667,146.8202 L190.9,147.0954 L201.0333,145.6113 L211.1667,146.4589 L221.3,145.9938 L231.4333,146.0512 L241.5667,146.4716 L251.7,145.6407 L261.8333,147.3007 L271.9667,145.7221 L282.1,146.2988 L292.2333,147.1384 L302.3667,146.4481 L312.5,146.5625 " fill="none" style="stroke: #383838; stroke-width: 1.0;"/><text fill="#000000" font-family="sans-serif" font-size="13" lengthAdjust="spacingAndGlyphs" textLength="134" x="167.5" y="141.4966">send some message</text><!--
@startuml domain-messenger-interaction
skinparam {
  handwritten true
  monochrome true
}
hide footbox
actor actor
box "domain"
actor -> domainobject: do your business
domainobject -> messenger: send some message
end box
@enduml

PlantUML version 1.2018.13(Mon Nov 26 18:11:51 CET 2018)
(GPL source distribution)
Java Runtime: OpenJDK Runtime Environment
JVM: OpenJDK 64-Bit Server VM
Java Version: 13.0.3+3-MTS
Operating System: Linux
OS Version: 5.4.0-52-generic
Default Encoding: UTF-8
Language: en
Country: US
--></g></svg>