<?xml version="1.0" encoding="UTF-8" standalone="no"?><svg xmlns="http://www.w3.org/2000/svg" xmlns:xlink="http://www.w3.org/1999/xlink" contentScriptType="application/ecmascript" contentStyleType="text/css" height="282px" preserveAspectRatio="none" style="width:891px;height:282px;" version="1.1" viewBox="0 0 891 282" width="891px" zoomAndPan="magnify"><defs><filter height="300%" id="f1jn2bagu1b2u4" width="300%" x="-1" y="-1"><feGaussianBlur result="blurOut" stdDeviation="2.0"/><feColorMatrix in="blurOut" result="blurOut2" type="matrix" values="0 0 0 0 0 0 0 0 0 0 0 0 0 0 0 0 0 0 .4 0"/><feOffset dx="4.0" dy="4.0" in="blurOut2" result="blurOut3"/><feBlend in="SourceGraphic" in2="blurOut3" mode="normal"/></filter></defs><g><!--cluster quiltz.messenger--><polygon fill="#FFFFFF" filter="url(#f1jn2bagu1b2u4)" points="511,24,511,24.2102,521.2143,23.5857,531.4286,24.1933,541.6429,24.3997,551.8571,23.2866,562.0714,23.9223,572.2857,23.5735,582.5,23.6165,592.7143,23.9318,602.9286,23.3086,613.1429,24.5536,623.3571,23.3697,633.5714,23.8022,643.7857,24.4319,654,24,653.9727,23.9914,655.4217,28.4662,656.7898,32.9156,658.2568,37.3959,659.6761,41.8614,661,46.2969,661,46.8826,670.9048,46.9679,680.8095,46.9761,690.7143,46.5515,700.619,46.7605,710.5238,46.9991,720.4286,45.5757,730.3333,46.9754,740.2381,46.0004,750.1429,46.8307,760.0476,45.8019,769.9524,46.2284,779.8571,47.0385,789.7619,46.2481,799.6667,46.4022,809.5714,46.6355,819.4762,46.7131,829.381,46.293,839.2857,46.5841,849.1905,45.7245,859.0952,46.5813,869,46.2969,869.5482,46.2969,869.4445,56.5672,869.613,66.8375,868.5169,77.1078,868.3478,87.3781,868.3786,97.6484,868.9411,107.9187,868.8035,118.1891,869.6814,128.4594,868.8253,138.7297,869,149,869,148.6569,859.0556,149.2283,849.1111,148.3332,839.1667,148.4809,829.2222,149.649,819.2778,149.4357,809.3333,149.7345,799.3889,148.6782,789.4444,149.3192,779.5,149.5904,769.5556,148.5276,759.6111,148.9041,749.6667,149.126,739.7222,149.6518,729.7778,148.9958,719.8333,149.4626,709.8889,148.4462,699.9444,148.3227,690,149.5036,680.0556,148.2831,670.1111,149.509,660.1667,149.2066,650.2222,148.7321,640.2778,148.6462,630.3333,149.4588,620.3889,148.7007,610.4444,149.5919,600.5,148.4473,590.5556,149.6174,580.6111,149.4843,570.6667,149.245,560.7222,149.0472,550.7778,149.7266,540.8333,149.6136,530.8889,149.1693,520.9444,149.2682,511,149,510.8697,149,511.7165,139.3846,511.1549,129.7692,511.1726,120.1538,510.3916,110.5385,510.5948,100.9231,511.5307,91.3077,511.4298,81.6923,510.9571,72.0769,510.6778,62.4615,510.7811,52.8462,510.3138,43.2308,511.4147,33.6154,511,24" style="stroke: #000000; stroke-width: 1.5;"/><path d="M511,46.2969 L511,46.5771 L521,45.7444 L531,46.5546 L541,46.8298 L551,45.3457 L561,46.1933 L571,45.7282 L581,45.7855 L591,46.206 L601,45.375 L611,47.0351 L621,45.4565 L631,46.0332 L641,46.8728 L651,46.1825 L661,46.2969 " fill="#FFFFFF" style="stroke: #000000; stroke-width: 1.5;"/><text fill="#000000" font-family="sans-serif" font-size="14" font-weight="bold" lengthAdjust="spacingAndGlyphs" textLength="137" x="515" y="38.9951">quiltz.messenger</text><!--cluster quiltz.engine.smtp--><polygon fill="#FFFFFF" filter="url(#f1jn2bagu1b2u4)" points="22,30.5,22,30.7102,32.1333,30.0857,42.2667,30.6933,52.4,30.8997,62.5333,29.7866,72.6667,30.4223,82.8,30.0735,92.9333,30.1165,103.0667,30.4318,113.2,29.8086,123.3333,31.0536,133.4667,29.8697,143.6,30.3022,153.7333,30.9319,163.8667,30.4142,174,30.5,174.0217,30.5068,175.3898,34.9562,176.8568,39.4366,178.2761,43.902,179.7863,48.396,181,52.7969,181,53.4679,190.871,53.4761,200.7419,53.0515,210.6129,53.2605,220.4839,53.4991,230.3548,52.0757,240.2258,53.4754,250.0968,52.5004,259.9677,53.3307,269.8387,52.3019,279.7097,52.7284,289.5806,53.5385,299.4516,52.7481,309.3226,52.9022,319.1935,53.1355,329.0645,53.2131,338.9355,52.793,348.8065,53.0841,358.6774,52.2245,368.5484,53.0813,378.4194,53.3451,388.2903,53.2414,398.1613,53.4099,408.0323,52.3138,417.9032,52.1447,427.7742,52.1755,437.6452,52.738,447.5161,52.6003,457.3871,53.4783,467.2581,52.6222,477.129,52.4538,487,52.7969,487.2283,52.7969,486.3332,62.6697,486.4809,72.5426,487.649,82.4155,487.4357,92.2884,487.7345,102.1612,486.6782,112.0341,487.3192,121.907,487.5904,131.7798,486.5276,141.6527,486.9041,151.5256,487.126,161.3984,487.6518,171.2713,486.9958,181.1442,487.4626,191.017,486.4462,200.8899,486.3227,210.7628,487.5036,220.6357,486.2831,230.5085,487.509,240.3814,487.2066,250.2543,486.7321,260.1271,487,270,487,269.6462,477.1064,270.4588,467.2128,269.7007,457.3191,270.5919,447.4255,269.4473,437.5319,270.6174,427.6383,270.4843,417.7447,270.245,407.8511,270.0472,397.9574,270.7266,388.0638,270.6136,378.1702,270.1693,368.2766,270.2682,358.383,269.8697,348.4894,270.7165,338.5957,270.1549,328.7021,270.1726,318.8085,269.3916,308.9149,269.5948,299.0213,270.5307,289.1277,270.4298,279.234,269.9571,269.3404,269.6778,259.4468,269.7811,249.5532,269.3138,239.6596,270.4147,229.766,270.7396,219.8723,270.5264,209.9787,270.6949,200.0851,269.8633,190.1915,270.0872,180.2979,269.6124,170.4043,270.284,160.5106,270.2468,150.617,270.5524,140.7234,269.7703,130.8298,269.8656,120.9362,270.4435,111.0426,270.5673,101.1489,269.4875,91.2553,269.8061,81.3617,270.1493,71.4681,269.3892,61.5745,270.3534,51.6809,270.258,41.7872,269.8992,31.8936,270.1422,22,270,22.7287,270,21.6871,260.0208,22.315,250.0417,22.2856,240.0625,22.1158,230.0833,22.1409,220.1042,22.1135,210.125,21.3758,200.1458,21.5992,190.1667,21.5385,180.1875,22.0638,170.2083,22.0881,160.2292,22.1617,150.25,21.709,140.2708,21.9325,130.2917,21.8798,120.3125,22.5769,110.3333,22.4266,100.3542,21.5145,90.375,21.9271,80.3958,21.4228,70.4167,22.2884,60.4375,22.6085,50.4583,22.5446,40.4792,22,30.5" style="stroke: #000000; stroke-width: 1.5;"/><path d="M22,52.7969 L22,53.0771 L31.9375,52.2444 L41.875,53.0546 L51.8125,53.3298 L61.75,51.8457 L71.6875,52.6933 L81.625,52.2282 L91.5625,52.2855 L101.5,52.706 L111.4375,51.875 L121.375,53.5351 L131.3125,51.9565 L141.25,52.5332 L151.1875,53.3728 L161.125,52.6825 L171.0625,52.8879 L181,52.7969 " fill="#FFFFFF" style="stroke: #000000; stroke-width: 1.5;"/><text fill="#000000" font-family="sans-serif" font-size="14" font-weight="bold" lengthAdjust="spacingAndGlyphs" textLength="146" x="26" y="45.4951">quiltz.engine.smtp</text><!--class Messenger--><polygon fill="#F8F8F8" filter="url(#f1jn2bagu1b2u4)" points="527.5,59,527.5,59.2102,537.6,58.5857,547.7,59.1933,557.8,59.3997,567.9,58.2866,578,58.9223,588.1,58.5735,598.2,58.6165,608.3,58.9318,618.4,58.3086,628.5,59,629.0536,59,627.8697,69.5156,628.3022,80.0313,628.9319,90.5469,628.4142,101.0625,628.5682,111.5781,628.4681,122.0938,628.5,132.6094,628.5,132.7879,618.4,132.8485,608.3,133.1951,598.2,133.2804,588.1,133.2886,578,132.864,567.9,133.073,557.8,133.3116,547.7,131.8882,537.6,133.2879,527.5,132.6094,527.2035,132.6094,528.0338,122.0938,527.005,111.5781,527.4315,101.0625,528.2416,90.5469,527.4513,80.0313,527.6053,69.5156,527.5,59" style="stroke: #383838; stroke-width: 1.5;"/><polygon fill="#C2C2C2" points="553.5608,77.6756,551.9484,79.8788,550.0412,83.1057,547.3136,85.2804,544.4474,86.4696,542.162,86.5728,539.2247,85.0855,536.4532,84.1139,534.3495,82.1412,533.2461,79.8828,532.5917,78.0845,531.9506,75.7357,530.91,73.7145,531.7096,71.741,532.4102,69.5792,535.0393,67.8695,536.889,65.6511,539.1784,64.9144,541.9001,64.2801,545.3904,64.657,547.3021,65.5585,549.5247,65.9672,552.2272,68.736,553.1693,71.659,553.5786,73.6534,553.115,76.9399" style="stroke: #383838; stroke-width: 1.0;"/><path d="M545.4688,80.6406 Q544.8906,80.9375 544.25,81.0781 Q543.6094,81.2344 542.9063,81.2344 Q540.4063,81.2344 539.0781,79.5938 Q537.7656,77.9375 537.7656,74.8125 Q537.7656,71.6875 539.0781,70.0313 Q540.4063,68.375 542.9063,68.375 Q543.6094,68.375 544.25,68.5313 Q544.9063,68.6875 545.4688,68.9844 L545.4688,71.7031 Q544.8438,71.125 544.25,70.8594 Q543.6563,70.5781 543.0313,70.5781 Q541.6875,70.5781 541,71.6563 Q540.3125,72.7188 540.3125,74.8125 Q540.3125,76.9063 541,77.9844 Q541.6875,79.0469 543.0313,79.0469 Q543.6563,79.0469 544.25,78.7813 Q544.8438,78.5 545.4688,77.9219 L545.4688,80.6406 Z "/><text fill="#000000" font-family="sans-serif" font-size="12" lengthAdjust="spacingAndGlyphs" textLength="69" x="556.5" y="79.1543">Messenger</text><path d="M528.5,91 L528.5,91.2802 L538.4,90.4476 L548.3,91.2577 L558.2,91.5329 L568.1,90.0488 L578,90.8964 L587.9,90.4313 L597.8,90.4887 L607.7,90.9091 L617.6,90.0782 L627.5,91 " fill="#F8F8F8" style="stroke: #383838; stroke-width: 1.5;"/><text fill="#000000" font-family="sans-serif" font-size="11" lengthAdjust="spacingAndGlyphs" textLength="60" x="533.5" y="105.2104">messages</text><path d="M528.5,111.8047 L528.5,112.0849 L538.4,111.2523 L548.3,112.0624 L558.2,112.3376 L568.1,110.8535 L578,111.7011 L587.9,111.236 L597.8,111.2934 L607.7,111.7138 L617.6,110.8829 L627.5,111.8047 " fill="#F8F8F8" style="stroke: #383838; stroke-width: 1.5;"/><text fill="#000000" font-family="sans-serif" font-size="11" lengthAdjust="spacingAndGlyphs" textLength="89" x="533.5" y="126.0151">send(message)</text><!--class Message--><polygon fill="#F8F8F8" filter="url(#f1jn2bagu1b2u4)" points="663.5,59,663.5,59.2102,673.4474,58.5857,683.3947,59.1933,693.3421,59.3997,703.2895,58.2866,713.2368,58.9223,723.1842,58.5735,733.1316,58.6165,743.0789,58.9318,753.0263,58.3086,762.9737,59.5536,772.9211,58.3697,782.8684,58.8022,792.8158,59.4319,802.7632,58.9142,812.7105,59.0682,822.6579,58.9681,832.6053,59.1785,842.5526,59.2391,852.5,59,853.0857,59,853.1711,69.5156,853.1793,80.0313,852.7546,90.5469,852.9636,101.0625,853.2022,111.5781,851.7788,122.0938,852.5,132.6094,852.5,133.2879,842.5526,132.3129,832.6053,133.1432,822.6579,132.1144,812.7105,132.5409,802.7632,133.351,792.8158,132.5606,782.8684,132.7147,772.9211,132.948,762.9737,133.0256,753.0263,132.6055,743.0789,132.8966,733.1316,132.037,723.1842,132.8938,713.2368,133.1576,703.2895,133.0539,693.3421,133.2224,683.3947,132.1263,673.4474,131.9572,663.5,132.6094,662.8786,132.6094,663.4411,122.0938,663.3035,111.5781,664.1814,101.0625,663.3253,90.5469,663.1569,80.0313,663.7283,69.5156,663.5,59" style="stroke: #383838; stroke-width: 1.5;"/><polygon fill="#C2C2C2" points="736.8108,77.6756,735.1984,79.8788,733.2912,83.1057,730.5636,85.2804,727.6974,86.4696,725.412,86.5728,722.4747,85.0855,719.7032,84.1139,717.5995,82.1412,716.4961,79.8828,715.8417,78.0845,715.2006,75.7357,714.16,73.7145,714.9596,71.741,715.6602,69.5792,718.2893,67.8695,720.139,65.6511,722.4284,64.9144,725.1501,64.2801,728.6404,64.657,730.5521,65.5585,732.7747,65.9672,735.4772,68.736,736.4193,71.659,736.8286,73.6534,736.365,76.9399" style="stroke: #383838; stroke-width: 1.0;"/><path d="M728.7188,80.6406 Q728.1406,80.9375 727.5,81.0781 Q726.8594,81.2344 726.1563,81.2344 Q723.6563,81.2344 722.3281,79.5938 Q721.0156,77.9375 721.0156,74.8125 Q721.0156,71.6875 722.3281,70.0313 Q723.6563,68.375 726.1563,68.375 Q726.8594,68.375 727.5,68.5313 Q728.1563,68.6875 728.7188,68.9844 L728.7188,71.7031 Q728.0938,71.125 727.5,70.8594 Q726.9063,70.5781 726.2813,70.5781 Q724.9375,70.5781 724.25,71.6563 Q723.5625,72.7188 723.5625,74.8125 Q723.5625,76.9063 724.25,77.9844 Q724.9375,79.0469 726.2813,79.0469 Q726.9063,79.0469 727.5,78.7813 Q728.0938,78.5 728.7188,77.9219 L728.7188,80.6406 Z "/><text fill="#000000" font-family="sans-serif" font-size="12" lengthAdjust="spacingAndGlyphs" textLength="56" x="746.25" y="79.1543">Message</text><path d="M664.5,91 L664.5,91.2802 L674.3421,90.4476 L684.1842,91.2577 L694.0263,91.5329 L703.8684,90.0488 L713.7105,90.8964 L723.5526,90.4313 L733.3947,90.4887 L743.2368,90.9091 L753.0789,90.0782 L762.9211,91.7382 L772.7632,90.1596 L782.6053,90.7363 L792.4474,91.5759 L802.2895,90.8856 L812.1316,91.091 L821.9737,90.9574 L831.8158,91.238 L841.6579,91.3188 L851.5,91 " fill="#F8F8F8" style="stroke: #383838; stroke-width: 1.5;"/><path d="M664.5,99 L664.5,99.2802 L674.3421,98.4476 L684.1842,99.2577 L694.0263,99.5329 L703.8684,98.0488 L713.7105,98.8964 L723.5526,98.4313 L733.3947,98.4887 L743.2368,98.9091 L753.0789,98.0782 L762.9211,99.7382 L772.7632,98.1596 L782.6053,98.7363 L792.4474,99.5759 L802.2895,98.8856 L812.1316,99.091 L821.9737,98.9574 L831.8158,99.238 L841.6579,99.3188 L851.5,99 " fill="#F8F8F8" style="stroke: #383838; stroke-width: 1.5;"/><text fill="#000000" font-family="sans-serif" font-size="11" lengthAdjust="spacingAndGlyphs" textLength="177" x="669.5" y="113.2104">static for_unnamed_recepient()</text><text fill="#000000" font-family="sans-serif" font-size="11" lengthAdjust="spacingAndGlyphs" textLength="163" x="669.5" y="126.0151">static for_named_recepient()</text><!--class SMTPBasedMessageEngine--><polygon fill="#F8F8F8" filter="url(#f1jn2bagu1b2u4)" points="164.5,65.5,164.5,65.7102,174.65,65.0857,184.8,65.6933,194.95,65.8997,205.1,64.7866,215.25,65.4223,225.4,65.0735,235.55,65.1165,245.7,65.4318,255.85,64.8086,266,66.0536,276.15,64.8697,286.3,65.3022,296.45,65.9319,306.6,65.4142,316.75,65.5682,326.9,65.4681,337.05,65.6785,347.2,65.7391,357.35,66.0857,367.5,65.5,368.1711,65.5,368.1793,75.6341,367.7546,85.7682,367.9636,95.9023,368.2022,106.0365,366.7788,116.1706,367.5,126.3047,367.5,126.9832,357.35,126.0082,347.2,126.8385,337.05,125.8097,326.9,126.2362,316.75,127.0463,306.6,126.256,296.45,126.41,286.3,126.6433,276.15,126.7209,266,126.3008,255.85,126.5919,245.7,125.7323,235.55,126.5891,225.4,126.8529,215.25,126.7492,205.1,126.9177,194.95,125.8216,184.8,125.6525,174.65,125.6833,164.5,126.3047,164.4411,126.3047,164.3035,116.1706,165.1814,106.0365,164.3253,95.9023,164.1569,85.7682,164.7283,75.6341,164.5,65.5" style="stroke: #383838; stroke-width: 1.5;"/><polygon fill="#C2C2C2" points="190.5608,84.1756,188.9484,86.3788,187.0412,89.6057,184.3136,91.7804,181.4474,92.9696,179.162,93.0728,176.2247,91.5855,173.4532,90.6139,171.3495,88.6412,170.2461,86.3828,169.5917,84.5845,168.9506,82.2357,167.91,80.2145,168.7096,78.241,169.4102,76.0792,172.0393,74.3695,173.889,72.1511,176.1784,71.4144,178.9001,70.7801,182.3904,71.157,184.3021,72.0585,186.5247,72.4672,189.2272,75.236,190.1693,78.159,190.5786,80.1534,190.115,83.4399" style="stroke: #383838; stroke-width: 1.0;"/><path d="M182.4688,87.1406 Q181.8906,87.4375 181.25,87.5781 Q180.6094,87.7344 179.9063,87.7344 Q177.4063,87.7344 176.0781,86.0938 Q174.7656,84.4375 174.7656,81.3125 Q174.7656,78.1875 176.0781,76.5313 Q177.4063,74.875 179.9063,74.875 Q180.6094,74.875 181.25,75.0313 Q181.9063,75.1875 182.4688,75.4844 L182.4688,78.2031 Q181.8438,77.625 181.25,77.3594 Q180.6563,77.0781 180.0313,77.0781 Q178.6875,77.0781 178,78.1563 Q177.3125,79.2188 177.3125,81.3125 Q177.3125,83.4063 178,84.4844 Q178.6875,85.5469 180.0313,85.5469 Q180.6563,85.5469 181.25,85.2813 Q181.8438,85 182.4688,84.4219 L182.4688,87.1406 Z "/><text fill="#000000" font-family="sans-serif" font-size="12" lengthAdjust="spacingAndGlyphs" textLength="171" x="193.5" y="85.6543">SMTPBasedMessageEngine</text><path d="M165.5,97.5 L165.5,97.7802 L175.55,96.9476 L185.6,97.7577 L195.65,98.0329 L205.7,96.5488 L215.75,97.3964 L225.8,96.9313 L235.85,96.9887 L245.9,97.4091 L255.95,96.5782 L266,98.2382 L276.05,96.6596 L286.1,97.2363 L296.15,98.0759 L306.2,97.3856 L316.25,97.591 L326.3,97.4574 L336.35,97.738 L346.4,97.8188 L356.45,98.2809 L366.5,97.5 " fill="#F8F8F8" style="stroke: #383838; stroke-width: 1.5;"/><path d="M165.5,105.5 L165.5,105.7802 L175.55,104.9476 L185.6,105.7577 L195.65,106.0329 L205.7,104.5488 L215.75,105.3964 L225.8,104.9313 L235.85,104.9887 L245.9,105.4091 L255.95,104.5782 L266,106.2382 L276.05,104.6596 L286.1,105.2363 L296.15,106.0759 L306.2,105.3856 L316.25,105.591 L326.3,105.4574 L336.35,105.738 L346.4,105.8188 L356.45,106.2809 L366.5,105.5 " fill="#F8F8F8" style="stroke: #383838; stroke-width: 1.5;"/><text fill="#000000" font-family="sans-serif" font-size="11" lengthAdjust="spacingAndGlyphs" textLength="115" x="170.5" y="119.7104">commit(messenger)</text><!--class NoMessageEngine--><polygon fill="#F8F8F8" filter="url(#f1jn2bagu1b2u4)" points="323,193,323,193.2102,332.8667,192.5857,342.7333,193.1933,352.6,193.3997,362.4667,192.2866,372.3333,192.9223,382.2,192.5735,392.0667,192.6165,401.9333,192.9318,411.8,192.3086,421.6667,193.5536,431.5333,192.3697,441.4,192.8022,451.2667,193.4319,461.1333,192.9142,471,193,471.0682,193,470.9681,203.1341,471.1785,213.2682,471.2391,223.4023,471.5857,233.5365,471.6711,243.6706,471,253.8047,471,254.4839,461.1333,254.0593,451.2667,254.2683,441.4,254.5069,431.5333,253.0835,421.6667,254.4832,411.8,253.5082,401.9333,254.3385,392.0667,253.3097,382.2,253.7362,372.3333,254.5463,362.4667,253.756,352.6,253.91,342.7333,254.1433,332.8667,254.2209,323,253.8047,322.9961,253.8047,323.2872,243.6706,322.4276,233.5365,323.2844,223.4023,323.5482,213.2682,323.4445,203.1341,323,193" style="stroke: #383838; stroke-width: 1.5;"/><polygon fill="#C2C2C2" points="349.0608,211.6756,347.4484,213.8788,345.5412,217.1057,342.8136,219.2804,339.9474,220.4696,337.662,220.5728,334.7247,219.0855,331.9532,218.1139,329.8495,216.1412,328.7461,213.8828,328.0917,212.0845,327.4506,209.7357,326.41,207.7145,327.2096,205.741,327.9102,203.5792,330.5393,201.8695,332.389,199.6511,334.6784,198.9144,337.4001,198.2801,340.8904,198.657,342.8021,199.5585,345.0247,199.9672,347.7272,202.736,348.6693,205.659,349.0786,207.6534,348.615,210.9399" style="stroke: #383838; stroke-width: 1.0;"/><path d="M340.9688,214.6406 Q340.3906,214.9375 339.75,215.0781 Q339.1094,215.2344 338.4063,215.2344 Q335.9063,215.2344 334.5781,213.5938 Q333.2656,211.9375 333.2656,208.8125 Q333.2656,205.6875 334.5781,204.0313 Q335.9063,202.375 338.4063,202.375 Q339.1094,202.375 339.75,202.5313 Q340.4063,202.6875 340.9688,202.9844 L340.9688,205.7031 Q340.3438,205.125 339.75,204.8594 Q339.1563,204.5781 338.5313,204.5781 Q337.1875,204.5781 336.5,205.6563 Q335.8125,206.7188 335.8125,208.8125 Q335.8125,210.9063 336.5,211.9844 Q337.1875,213.0469 338.5313,213.0469 Q339.1563,213.0469 339.75,212.7813 Q340.3438,212.5 340.9688,211.9219 L340.9688,214.6406 Z "/><text fill="#000000" font-family="sans-serif" font-size="12" lengthAdjust="spacingAndGlyphs" textLength="116" x="352" y="213.1543">NoMessageEngine</text><path d="M324,225 L324,225.2802 L333.7333,224.4476 L343.4667,225.2577 L353.2,225.5329 L362.9333,224.0488 L372.6667,224.8964 L382.4,224.4313 L392.1333,224.4887 L401.8667,224.9091 L411.6,224.0782 L421.3333,225.7382 L431.0667,224.1596 L440.8,224.7363 L450.5333,225.5759 L460.2667,224.8856 L470,225 " fill="#F8F8F8" style="stroke: #383838; stroke-width: 1.5;"/><path d="M324,233 L324,233.2802 L333.7333,232.4476 L343.4667,233.2577 L353.2,233.5329 L362.9333,232.0488 L372.6667,232.8964 L382.4,232.4313 L392.1333,232.4887 L401.8667,232.9091 L411.6,232.0782 L421.3333,233.7382 L431.0667,232.1596 L440.8,232.7363 L450.5333,233.5759 L460.2667,232.8856 L470,233 " fill="#F8F8F8" style="stroke: #383838; stroke-width: 1.5;"/><text fill="#000000" font-family="sans-serif" font-size="11" lengthAdjust="spacingAndGlyphs" textLength="115" x="329" y="247.2104">commit(messenger)</text><!--class SMTPBasedMessageEngineForTest--><polygon fill="#F8F8F8" filter="url(#f1jn2bagu1b2u4)" points="38,193,38,193.2102,48,192.5857,58,193.1933,68,193.3997,78,192.2866,88,192.9223,98,192.5735,108,192.6165,118,192.9318,128,192.3086,138,193.5536,148,192.3697,158,192.8022,168,193.4319,178,192.9142,188,193.0682,198,192.9681,208,193.1785,218,193.2391,228,193.5857,238,193.6711,248,193.6793,258,193.2546,268,193.4636,278,193.7022,288,193,287.2788,193,288.6785,203.1341,287.7035,213.2682,288.5338,223.4023,287.505,233.5365,287.9315,243.6706,288,253.8047,288,254.5463,278,253.756,268,253.91,258,254.1433,248,254.2209,238,253.8008,228,254.0919,218,253.2323,208,254.0891,198,254.3529,188,254.2492,178,254.4177,168,253.3216,158,253.1525,148,253.1833,138,253.7458,128,253.6082,118,254.4861,108,253.63,98,253.4616,88,254.033,78,253.1378,68,253.2856,58,254.4536,48,254.2404,38,253.8047,38.7345,253.8047,37.6782,243.6706,38.3192,233.5365,38.5904,223.4023,37.5276,213.2682,37.9041,203.1341,38,193" style="stroke: #383838; stroke-width: 1.5;"/><polygon fill="#C2C2C2" points="64.0608,211.6756,62.4484,213.8788,60.5412,217.1057,57.8136,219.2804,54.9474,220.4696,52.662,220.5728,49.7247,219.0855,46.9532,218.1139,44.8495,216.1412,43.7461,213.8828,43.0917,212.0845,42.4506,209.7357,41.41,207.7145,42.2096,205.741,42.9102,203.5792,45.5393,201.8695,47.389,199.6511,49.6784,198.9144,52.4001,198.2801,55.8904,198.657,57.8021,199.5585,60.0247,199.9672,62.7272,202.736,63.6693,205.659,64.0786,207.6534,63.615,210.9399" style="stroke: #383838; stroke-width: 1.0;"/><path d="M55.9688,214.6406 Q55.3906,214.9375 54.75,215.0781 Q54.1094,215.2344 53.4063,215.2344 Q50.9063,215.2344 49.5781,213.5938 Q48.2656,211.9375 48.2656,208.8125 Q48.2656,205.6875 49.5781,204.0313 Q50.9063,202.375 53.4063,202.375 Q54.1094,202.375 54.75,202.5313 Q55.4063,202.6875 55.9688,202.9844 L55.9688,205.7031 Q55.3438,205.125 54.75,204.8594 Q54.1563,204.5781 53.5313,204.5781 Q52.1875,204.5781 51.5,205.6563 Q50.8125,206.7188 50.8125,208.8125 Q50.8125,210.9063 51.5,211.9844 Q52.1875,213.0469 53.5313,213.0469 Q54.1563,213.0469 54.75,212.7813 Q55.3438,212.5 55.9688,211.9219 L55.9688,214.6406 Z "/><text fill="#000000" font-family="sans-serif" font-size="12" lengthAdjust="spacingAndGlyphs" textLength="218" x="67" y="213.1543">SMTPBasedMessageEngineForTest</text><path d="M39,225 L39,225.2802 L48.92,224.4476 L58.84,225.2577 L68.76,225.5329 L78.68,224.0488 L88.6,224.8964 L98.52,224.4313 L108.44,224.4887 L118.36,224.9091 L128.28,224.0782 L138.2,225.7382 L148.12,224.1596 L158.04,224.7363 L167.96,225.5759 L177.88,224.8856 L187.8,225.091 L197.72,224.9574 L207.64,225.238 L217.56,225.3188 L227.48,225.7809 L237.4,225.8947 L247.32,225.9057 L257.24,225.3395 L267.16,225.6181 L277.08,225.9363 L287,225 " fill="#F8F8F8" style="stroke: #383838; stroke-width: 1.5;"/><path d="M39,233 L39,233.2802 L48.92,232.4476 L58.84,233.2577 L68.76,233.5329 L78.68,232.0488 L88.6,232.8964 L98.52,232.4313 L108.44,232.4887 L118.36,232.9091 L128.28,232.0782 L138.2,233.7382 L148.12,232.1596 L158.04,232.7363 L167.96,233.5759 L177.88,232.8856 L187.8,233.091 L197.72,232.9574 L207.64,233.238 L217.56,233.3188 L227.48,233.7809 L237.4,233.8947 L247.32,233.9057 L257.24,233.3395 L267.16,233.6181 L277.08,233.9363 L287,233 " fill="#F8F8F8" style="stroke: #383838; stroke-width: 1.5;"/><text fill="#000000" font-family="sans-serif" font-size="11" lengthAdjust="spacingAndGlyphs" textLength="115" x="44" y="247.2104">commit(messenger)</text><!--link SMTPBasedMessageEngine to SMTPBasedMessageEngineForTest--><!--link SMTPBasedMessageEngineForTest to NoMessageEngine--><!--link SMTPBasedMessageEngine to Messenger--><path d="M367.77,96 L367.77,96.2802 L378.0647,95.4476 L388.3593,96.2577 L398.654,96.5329 L408.9487,95.0488 L419.2433,95.8964 L429.538,95.4313 L439.8327,95.4887 L450.1273,95.9091 L460.422,95.0782 L470.7167,96.7382 L481.0113,95.1596 L491.306,95.7363 L501.6007,96.5759 L511.8953,95.8856 L522.19,96 " fill="none" style="stroke: #383838; stroke-width: 1.0; stroke-dasharray: 7.0,7.0;"/><polygon fill="#383838" points="527.49,96,527.5185,96.064,525.6339,95.0738,523.9162,94.4589,522.1441,93.7217,520.1934,92.5827,518.49,92,518.4717,91.9817,519.1895,92.6995,519.9996,93.5096,520.8739,94.3839,521.527,95.037,522.49,96,522.6205,96.1305,521.5414,96.6514,520.8434,97.5534,520.1918,98.5018,519.2698,99.1798,518.49,100,518.4992,100.0208,520.2857,99.1903,522.1142,98.4544,523.9224,97.6728,525.7693,96.9784,527.49,96" style="stroke: #383838; stroke-width: 1.0;"/><!--link Messenger to Message--><path d="M641.7,96 L641.7,96.0934 L643.402,95.8159 L645.104,96.0859 L646.806,96.1776 L648.508,95.6829 L650.21,96 " fill="none" style="stroke: #383838; stroke-width: 1.0;"/><polygon fill="#383838" points="663.5,96,663.5285,96.064,661.6439,95.0738,659.9262,94.4589,658.1541,93.7217,656.2034,92.5827,654.5,92,654.4817,91.9817,655.1995,92.6995,656.0096,93.5096,656.8839,94.3839,657.537,95.037,658.5,96,658.6305,96.1305,657.5514,96.6514,656.8534,97.5534,656.2018,98.5018,655.2798,99.1798,654.5,100,654.5092,100.0208,656.2957,99.1903,658.1242,98.4544,659.9324,97.6728,661.7793,96.9784,663.5,96" style="stroke: #383838; stroke-width: 1.0;"/><path d="M658.5,96 L658.5,96.0934 L656.9,95.8159 L655.3,96.0859 L653.7,96.1776 L652.1,95.6829 L650.5,96 " fill="#383838" style="stroke: #383838; stroke-width: 1.0;"/><polygon fill="#FFFFFF" points="628.62,96,628.6588,96.0583,629.7444,96.6837,631.0574,97.651,632.2964,98.507,633.2918,98.9967,634.6244,99.9934,634.61,99.9719,635.7445,99.0739,636.9516,98.2845,638.2091,97.5706,639.2928,96.5965,640.62,95.9868,640.7222,96.1405,639.3028,95.0132,638.1817,94.3346,637.0971,93.7107,635.8006,92.7683,634.6156,91.9934,634.6282,92.0123,633.4106,92.7859,632.2504,93.6455,631.0625,94.4636,629.9276,95.361,628.62,96" style="stroke: #383838; stroke-width: 1.0;"/><!--
@startuml messaging-component
skinparam {
  handwritten true
  monochrome true
}
package quiltz.messenger {
  class Messenger {
    messages
    send(message)
  }
  class Message {
    static for_unnamed_recepient()
    static for_named_recepient()
  }
}
package quiltz.engine.smtp {        
  class SMTPBasedMessageEngine {
    commit(messenger)
  }
  class NoMessageEngine {
    commit(messenger)
  }
  class SMTPBasedMessageEngineForTest {
    commit(messenger)
  }
}
SMTPBasedMessageEngine -down[hidden]-> SMTPBasedMessageEngineForTest
SMTPBasedMessageEngineForTest -right[hidden]-> NoMessageEngine
SMTPBasedMessageEngine .right.> Messenger
Messenger o-right-> Message
@enduml

PlantUML version 1.2018.13(Mon Nov 26 18:11:51 CET 2018)
(GPL source distribution)
Java Runtime: OpenJDK Runtime Environment
JVM: OpenJDK 64-Bit Server VM
Java Version: 13.0.3+3-MTS
Operating System: Linux
OS Version: 5.4.0-52-generic
Default Encoding: UTF-8
Language: en
Country: US
--></g></svg>